<svg width="119" height="37" viewBox="0 0 119 37" fill="none" xmlns="http://www.w3.org/2000/svg">
<path fill-rule="evenodd" clip-rule="evenodd" d="M17.2122 17.6022L17.2121 17.602C16.6487 16.8239 16.1203 16.0941 16.1203 14.6189V8.89426C16.1203 8.69085 16.1216 8.4891 16.1228 8.28915V8.28906C16.1364 6.11073 16.1486 4.14708 14.5201 2.57951C13.0978 1.22213 10.7864 0.75 9.00846 0.75C5.5118 0.75 1.60029 2.04836 0.770572 6.35656C0.711306 6.82869 1.00763 7.06475 1.30396 7.12377L4.85988 7.47787C5.21548 7.47787 5.45254 7.12377 5.5118 6.82869C5.80813 5.35328 7.0527 4.64508 8.47507 4.64508C9.24553 4.64508 10.0752 4.94016 10.5494 5.58935C11.0016 6.2398 10.9852 7.05994 10.9697 7.83397C10.967 7.97291 10.9642 8.11036 10.9642 8.24508V8.71722C10.672 8.74954 10.3676 8.78076 10.0548 8.81284H10.0547C8.08324 9.01507 5.77733 9.25157 4.08943 10.0156C1.77808 11.0189 0.118652 13.0254 0.118652 16.0352C0.118652 19.8123 2.54853 21.7598 5.63034 21.7598C8.23801 21.7598 9.66038 21.1697 11.6754 19.1041C11.7588 19.2249 11.8354 19.3379 11.9081 19.4453C12.4044 20.1778 12.7236 20.6488 13.809 21.5238C14.1053 21.6418 14.4609 21.6418 14.6979 21.4648C15.4091 20.8156 16.7722 19.6352 17.4834 19.0451C17.7797 18.75 17.7205 18.3369 17.4834 17.9828C17.3935 17.8525 17.3024 17.7267 17.2122 17.6022ZM10.253 16.3893C9.66038 17.3926 8.7714 18.0418 7.70462 18.0418C6.28225 18.0418 5.45254 16.9795 5.45254 15.3861C5.45254 12.2582 8.23801 11.7271 10.905 11.7271V12.4943L10.907 12.544C10.9655 13.9383 11.0145 15.1062 10.253 16.3893ZM58.1783 8.872L58.1806 8.87177L58.1843 8.87138C58.495 8.83952 58.7974 8.80849 59.0877 8.77636L59.2063 8.36324C59.2063 8.28346 59.2067 8.20272 59.2072 8.12128C59.2121 7.29908 59.2175 6.40558 58.7321 5.70751C58.258 5.05833 57.4283 4.76324 56.6579 4.76324C55.2355 4.76324 53.9909 5.47144 53.6946 6.94685C53.6353 7.24194 53.3983 7.59603 53.0427 7.59603L49.4867 7.24194C49.1904 7.18291 48.8941 6.94685 48.9534 6.47472C49.7831 2.16653 53.6946 0.868164 57.1912 0.868164C58.9692 0.868164 61.2806 1.34029 62.7029 2.69767C64.3314 4.26524 64.3192 6.22889 64.3056 8.40723L64.3056 8.40913C64.3043 8.60847 64.3031 8.80962 64.3031 9.01243V14.737C64.3031 16.2123 64.8315 16.9421 65.3949 17.7202C65.4851 17.8448 65.5762 17.9706 65.6662 18.101C65.9033 18.396 65.9625 18.8092 65.6662 19.0452C64.955 19.6354 63.5919 20.8157 62.8807 21.4649C62.6437 21.6419 62.2881 21.6419 61.9917 21.5239C60.9063 20.6489 60.5872 20.1779 60.0909 19.4454C60.0524 19.3885 60.0128 19.3301 59.9716 19.2697C59.9351 19.2161 59.8974 19.161 59.8582 19.1042C57.8432 21.1698 56.4208 21.76 53.8131 21.76C50.7313 21.76 48.3014 19.8124 48.3014 16.0354C48.3014 13.0846 49.9016 11.078 52.2129 10.0747C53.9009 9.31071 56.2068 9.0742 58.1783 8.872ZM55.8874 18.0419C56.8949 18.0419 57.8432 17.3927 58.4358 16.3895C59.0956 15.1849 59.0923 14.0818 59.0883 12.7976V12.7972V12.7967C59.088 12.6971 59.0877 12.5964 59.0877 12.4944V11.7272C56.4208 11.7272 53.6353 12.2583 53.6353 15.3862C53.6353 16.9796 54.465 18.0419 55.8874 18.0419ZM24.7138 21.4648H21.0393C20.6837 21.4058 20.3874 21.1697 20.3282 20.8156V1.98936C20.3282 1.63526 20.6245 1.34018 21.0393 1.34018H24.4767C24.8323 1.3992 25.1287 1.63526 25.1287 1.98936V4.46805H25.1879C26.1362 2.1074 27.7956 0.986084 30.0477 0.986084C32.2998 0.986084 33.7814 2.1074 34.7889 4.46805C35.6779 2.1074 37.6929 0.986084 39.8857 0.986084C41.4266 0.986084 43.1453 1.63526 44.1528 3.05166C45.1706 4.41988 45.1397 6.31023 45.1106 8.08759V8.08771V8.08782V8.08794V8.08805C45.1058 8.38048 45.1011 8.66984 45.1011 8.9533V20.8156C45.1011 21.1697 44.8048 21.4648 44.3899 21.4648H40.7155C40.3599 21.4648 40.0635 21.1697 40.0635 20.8156V10.8418C40.0635 10.6969 40.0654 10.5175 40.0674 10.316C40.077 9.36874 40.0916 7.93349 39.945 7.30083C39.7079 6.06149 38.8782 5.7074 37.8115 5.7074C36.9225 5.7074 35.9742 6.29756 35.6186 7.24182C35.2481 8.08522 35.2558 9.44653 35.2617 10.4847C35.2624 10.6088 35.263 10.7283 35.263 10.8418V20.8156C35.263 21.1697 34.9667 21.4648 34.5519 21.4648H30.8774C30.5218 21.4648 30.2255 21.1697 30.2255 20.8156V10.8418C30.2255 10.6199 30.2294 10.3876 30.2333 10.1496V10.1496V10.1495V10.1494C30.2674 8.10936 30.3086 5.64838 27.9734 5.64838C25.414 5.64838 25.4199 8.42041 25.4246 10.5739C25.4248 10.6644 25.425 10.7538 25.425 10.8418V20.8156C25.425 21.1697 25.1287 21.4648 24.7138 21.4648ZM81.9049 16.3894C79.7714 15.2091 77.3415 14.855 75.0301 14.914L81.3123 6.0025C81.9049 5.17628 82.2012 4.70415 82.2012 4.29103V1.98939C82.2012 1.57628 81.9049 1.34021 81.4901 1.34021H69.3999C69.0443 1.34021 68.748 1.63529 68.748 1.98939V4.64513C68.748 5.05824 69.0443 5.29431 69.4592 5.29431H75.7413L68.5109 15.6222C68.0961 16.2714 68.0961 17.0386 68.0961 17.4517V20.1664C68.0961 20.5796 68.5109 20.9927 68.9258 20.7566C73.0151 18.573 77.9341 18.8091 81.6679 20.7566C82.142 20.9927 82.5568 20.5205 82.5568 20.1664V17.2746C82.4976 17.0386 82.379 16.6255 81.9049 16.3894ZM68.5702 25.1238C67.859 25.1828 67.7998 24.5926 68.3924 24.1795C72.3039 21.4058 78.8231 22.232 79.5343 23.2353C80.3047 24.1205 79.2972 30.6123 75.6228 33.6812C75.0894 34.1533 74.556 33.9172 74.7931 33.268L74.8356 33.1621C75.6855 31.0472 77.5044 26.5214 76.6303 25.4189C75.7761 24.3415 71.1467 24.8441 68.8403 25.0945H68.8402L68.5702 25.1238ZM48.9534 31.9107C56.5986 31.9107 65.0143 30.3172 72.7188 27.0713C73.9041 26.5402 74.8523 27.7795 73.667 28.7238C66.7922 33.7402 56.7764 36.4549 48.1829 36.4549C36.152 36.4549 25.3065 32.0287 17.0686 24.6517C16.4166 24.0615 17.0093 23.2353 17.7797 23.7074C26.6696 28.8418 37.6337 31.9107 48.9534 31.9107ZM84.3348 11.3731C84.3348 5.53047 87.2388 0.986206 92.5727 0.986206C98.0251 0.986206 100.929 5.6485 100.988 11.5501C100.988 17.2747 97.7288 21.819 92.5727 21.819C87.2388 21.819 84.3348 17.1567 84.3348 11.3731ZM89.7279 10.9184C89.7268 13.271 89.7245 17.9829 92.5727 17.9829C95.4174 17.9829 95.536 14.0288 95.5952 11.6092C95.5952 10.0747 95.536 8.12718 95.0618 6.65177C94.647 5.35342 93.8173 4.82227 92.632 4.82227C89.9057 4.82227 89.7279 8.48129 89.7279 10.7829L89.7279 10.9184ZM108.574 4.76313C109.582 2.22543 111.004 0.986084 113.553 0.986084C115.153 0.986084 116.753 1.57625 117.879 3.28772C118.827 4.76313 118.827 7.30083 118.827 9.13035V20.9336C118.768 21.2877 118.472 21.5238 118.116 21.5238H114.442C114.086 21.5238 113.849 21.2287 113.79 20.9336V10.7238C113.79 10.5655 113.791 10.4017 113.793 10.2341C113.81 8.21461 113.831 5.64838 111.478 5.64838C110.589 5.64838 109.76 6.23854 109.345 7.12379C108.811 8.2451 108.752 9.42543 108.752 10.6648V20.7566C108.752 21.1107 108.456 21.4058 108.041 21.4058H104.367C104.011 21.4058 103.715 21.1107 103.715 20.7566V1.98936C103.774 1.69428 104.07 1.3992 104.426 1.3992H107.804C108.1 1.3992 108.397 1.63526 108.456 1.93034V4.76313H108.574Z" fill="#2E3E5C"/>
</svg>
