<svg width="105" height="31" viewBox="0 0 105 31" fill="none" xmlns="http://www.w3.org/2000/svg">
<g clip-path="url(#clip0_97_297)">
<path d="M18.1316 30.7906C19.1346 30.7906 20.0094 29.9159 20.0094 28.9128V24.5273H21.2632C22.0156 24.5273 22.5171 24.0257 22.5171 23.2735V10.748H7.48291V23.2736C7.48291 24.0259 7.98447 24.5275 8.73675 24.5275H9.99071V28.9129C9.99071 29.916 10.8652 30.7907 11.8685 30.7907C12.8715 30.7907 13.7461 29.916 13.7461 28.9129V24.5275H16.2539V28.9129C16.2538 29.9159 17.1285 30.7906 18.1316 30.7906Z" fill="#A6D864"/>
<path d="M25.6488 23.2736C26.6519 23.2736 27.5264 22.399 27.5264 21.3958V12.6249C27.5264 11.6272 26.6519 10.748 25.6488 10.748C24.6456 10.748 23.771 11.6272 23.771 12.6249V21.3958C23.771 22.3989 24.6456 23.2736 25.6488 23.2736Z" fill="#A6D864"/>
<path d="M4.35126 23.2736C5.35444 23.2736 6.22907 22.399 6.22907 21.3958V12.6249C6.22907 11.6272 5.35456 10.748 4.35126 10.748C3.3482 10.748 2.47363 11.6272 2.47363 12.6249V21.3958C2.47369 22.3989 3.3482 23.2736 4.35126 23.2736Z" fill="#A6D864"/>
<path d="M21.0123 0.979955C20.7616 0.72771 20.3884 0.72771 20.1378 0.979955L18.4561 2.65602L18.3785 2.73348C17.3813 2.23415 16.2633 1.98478 15.0183 1.98237C15.0122 1.98237 15.0062 1.9822 15.0001 1.9822H14.9999C14.9936 1.9822 14.9878 1.98237 14.9815 1.98237C13.7366 1.98478 12.6186 2.23415 11.6215 2.73348L11.5438 2.65602L9.8621 0.979955C9.61126 0.72771 9.23826 0.72771 8.98759 0.979955C8.73675 1.23079 8.73675 1.6031 8.98759 1.85376L10.6143 3.48079C10.0901 3.83076 9.61484 4.25902 9.20152 4.74887C8.21199 5.92179 7.58076 7.44833 7.49398 9.10231C7.49316 9.11953 7.49146 9.13653 7.4907 9.15375C7.48537 9.26637 7.48291 9.37957 7.48291 9.49324H22.517C22.517 9.37963 22.5143 9.26643 22.5092 9.15375C22.5084 9.13653 22.5067 9.11953 22.5057 9.10231C22.4191 7.44833 21.7878 5.92173 20.7982 4.74898C20.385 4.25914 19.9095 3.83088 19.3854 3.4809L21.0123 1.85388C21.2632 1.6031 21.2632 1.23085 21.0123 0.979955ZM11.8661 7.30401C11.3473 7.30401 10.9267 6.88349 10.9267 6.3647C10.9267 5.84591 11.3473 5.42539 11.8661 5.42539C12.3848 5.42539 12.8054 5.84591 12.8054 6.3647C12.8054 6.88349 12.3848 7.30401 11.8661 7.30401ZM18.1338 7.30401C17.6151 7.30401 17.1945 6.88349 17.1945 6.3647C17.1945 5.84591 17.615 5.42539 18.1338 5.42539C18.6525 5.42539 19.0731 5.84591 19.0731 6.3647C19.0731 6.88349 18.6526 7.30401 18.1338 7.30401Z" fill="#A6D864"/>
</g>
<path d="M46.4301 19.6628H41.9821L41.2461 21.7908H38.8941L42.9101 10.6068H45.5181L49.5341 21.7908H47.1661L46.4301 19.6628ZM45.8221 17.8708L44.2061 13.1988L42.5901 17.8708H45.8221ZM56.1473 12.7988C57.2033 12.7988 58.0566 13.1348 58.7073 13.8068C59.3579 14.4681 59.6833 15.3961 59.6833 16.5908V21.7908H57.4433V16.8948C57.4433 16.1908 57.2673 15.6521 56.9153 15.2788C56.5633 14.8948 56.0833 14.7028 55.4753 14.7028C54.8566 14.7028 54.3659 14.8948 54.0033 15.2788C53.6513 15.6521 53.4753 16.1908 53.4753 16.8948V21.7908H51.2353V12.9268H53.4753V14.0308C53.7739 13.6468 54.1526 13.3481 54.6113 13.1348C55.0806 12.9108 55.5926 12.7988 56.1473 12.7988ZM61.4374 17.3268C61.4374 16.4308 61.6134 15.6361 61.9654 14.9428C62.328 14.2494 62.8187 13.7161 63.4374 13.3428C64.056 12.9694 64.744 12.7828 65.5014 12.7828C66.0774 12.7828 66.6267 12.9108 67.1494 13.1668C67.672 13.4121 68.088 13.7428 68.3974 14.1588V9.95077H70.6694V21.7908H68.3974V20.4788C68.12 20.9161 67.7307 21.2681 67.2294 21.5348C66.728 21.8014 66.1467 21.9348 65.4854 21.9348C64.7387 21.9348 64.056 21.7428 63.4374 21.3588C62.8187 20.9748 62.328 20.4361 61.9654 19.7428C61.6134 19.0388 61.4374 18.2334 61.4374 17.3268ZM68.4134 17.3588C68.4134 16.8148 68.3067 16.3508 68.0934 15.9668C67.88 15.5721 67.592 15.2734 67.2294 15.0708C66.8667 14.8574 66.4774 14.7508 66.0614 14.7508C65.6454 14.7508 65.2614 14.8521 64.9094 15.0548C64.5574 15.2574 64.2694 15.5561 64.0454 15.9508C63.832 16.3348 63.7254 16.7934 63.7254 17.3268C63.7254 17.8601 63.832 18.3294 64.0454 18.7348C64.2694 19.1294 64.5574 19.4334 64.9094 19.6468C65.272 19.8601 65.656 19.9668 66.0614 19.9668C66.4774 19.9668 66.8667 19.8654 67.2294 19.6628C67.592 19.4494 67.88 19.1508 68.0934 18.7668C68.3067 18.3721 68.4134 17.9028 68.4134 17.3588ZM75.2971 14.3028C75.5851 13.8334 75.9585 13.4654 76.4171 13.1988C76.8865 12.9321 77.4198 12.7988 78.0171 12.7988V15.1508H77.4251C76.7211 15.1508 76.1878 15.3161 75.8251 15.6468C75.4731 15.9774 75.2971 16.5534 75.2971 17.3748V21.7908H73.0571V12.9268H75.2971V14.3028ZM83.6619 21.9348C82.8085 21.9348 82.0405 21.7481 81.3579 21.3748C80.6752 20.9908 80.1365 20.4521 79.7419 19.7588C79.3579 19.0654 79.1659 18.2654 79.1659 17.3588C79.1659 16.4521 79.3632 15.6521 79.7579 14.9588C80.1632 14.2654 80.7125 13.7321 81.4059 13.3588C82.0992 12.9748 82.8725 12.7828 83.7259 12.7828C84.5792 12.7828 85.3525 12.9748 86.0459 13.3588C86.7392 13.7321 87.2832 14.2654 87.6779 14.9588C88.0832 15.6521 88.2859 16.4521 88.2859 17.3588C88.2859 18.2654 88.0779 19.0654 87.6619 19.7588C87.2565 20.4521 86.7019 20.9908 85.9979 21.3748C85.3045 21.7481 84.5259 21.9348 83.6619 21.9348ZM83.6619 19.9828C84.0672 19.9828 84.4459 19.8868 84.7979 19.6948C85.1605 19.4921 85.4485 19.1934 85.6619 18.7988C85.8752 18.4041 85.9819 17.9241 85.9819 17.3588C85.9819 16.5161 85.7579 15.8708 85.3099 15.4228C84.8725 14.9641 84.3339 14.7348 83.6939 14.7348C83.0539 14.7348 82.5152 14.9641 82.0779 15.4228C81.6512 15.8708 81.4379 16.5161 81.4379 17.3588C81.4379 18.2014 81.6459 18.8521 82.0619 19.3108C82.4885 19.7588 83.0219 19.9828 83.6619 19.9828ZM91.265 11.8708C90.8703 11.8708 90.5397 11.7481 90.273 11.5028C90.017 11.2468 89.889 10.9321 89.889 10.5588C89.889 10.1854 90.017 9.8761 90.273 9.63077C90.5397 9.37477 90.8703 9.24677 91.265 9.24677C91.6597 9.24677 91.985 9.37477 92.241 9.63077C92.5077 9.8761 92.641 10.1854 92.641 10.5588C92.641 10.9321 92.5077 11.2468 92.241 11.5028C91.985 11.7481 91.6597 11.8708 91.265 11.8708ZM92.369 12.9268V21.7908H90.129V12.9268H92.369ZM94.2061 17.3268C94.2061 16.4308 94.3821 15.6361 94.7341 14.9428C95.0968 14.2494 95.5875 13.7161 96.2061 13.3428C96.8248 12.9694 97.5128 12.7828 98.2701 12.7828C98.8461 12.7828 99.3955 12.9108 99.9181 13.1668C100.441 13.4121 100.857 13.7428 101.166 14.1588V9.95077H103.438V21.7908H101.166V20.4788C100.889 20.9161 100.499 21.2681 99.9981 21.5348C99.4968 21.8014 98.9155 21.9348 98.2541 21.9348C97.5075 21.9348 96.8248 21.7428 96.2061 21.3588C95.5875 20.9748 95.0968 20.4361 94.7341 19.7428C94.3821 19.0388 94.2061 18.2334 94.2061 17.3268ZM101.182 17.3588C101.182 16.8148 101.075 16.3508 100.862 15.9668C100.649 15.5721 100.361 15.2734 99.9981 15.0708C99.6355 14.8574 99.2461 14.7508 98.8301 14.7508C98.4141 14.7508 98.0301 14.8521 97.6781 15.0548C97.3261 15.2574 97.0381 15.5561 96.8141 15.9508C96.6008 16.3348 96.4941 16.7934 96.4941 17.3268C96.4941 17.8601 96.6008 18.3294 96.8141 18.7348C97.0381 19.1294 97.3261 19.4334 97.6781 19.6468C98.0408 19.8601 98.4248 19.9668 98.8301 19.9668C99.2461 19.9668 99.6355 19.8654 99.9981 19.6628C100.361 19.4494 100.649 19.1508 100.862 18.7668C101.075 18.3721 101.182 17.9028 101.182 17.3588Z" fill="#A6D864"/>
<defs>
<clipPath id="clip0_97_297">
<rect width="30" height="30" fill="white" transform="translate(0 0.790771)"/>
</clipPath>
</defs>
</svg>
