<svg width="121" height="120" viewBox="0 0 121 120" fill="none" xmlns="http://www.w3.org/2000/svg">
<path d="M69.25 49.5C72.0114 49.5 74.25 47.2614 74.25 44.5C74.25 41.7386 72.0114 39.5 69.25 39.5C66.4886 39.5 64.25 41.7386 64.25 44.5C64.25 47.2614 66.4886 49.5 69.25 49.5Z" stroke="#6CBF8B" stroke-width="4" stroke-miterlimit="10"/>
<path d="M51.75 49.5C54.5114 49.5 56.75 47.2614 56.75 44.5C56.75 41.7386 54.5114 39.5 51.75 39.5C48.9886 39.5 46.75 41.7386 46.75 44.5C46.75 47.2614 48.9886 49.5 51.75 49.5Z" stroke="#6CBF8B" stroke-width="4" stroke-miterlimit="10"/>
<path d="M78 64.5C80.7614 64.5 83 62.2614 83 59.5C83 56.7386 80.7614 54.5 78 54.5C75.2386 54.5 73 56.7386 73 59.5C73 62.2614 75.2386 64.5 78 64.5Z" stroke="#6CBF8B" stroke-width="4" stroke-miterlimit="10"/>
<path d="M86.25 48.25C88.3211 48.25 90 46.5711 90 44.5C90 42.4289 88.3211 40.75 86.25 40.75C84.1789 40.75 82.5 42.4289 82.5 44.5C82.5 46.5711 84.1789 48.25 86.25 48.25Z" stroke="#6CBF8B" stroke-width="4" stroke-miterlimit="10"/>
<path d="M86.25 78.25C88.3211 78.25 90 76.5711 90 74.5C90 72.4289 88.3211 70.75 86.25 70.75C84.1789 70.75 82.5 72.4289 82.5 74.5C82.5 76.5711 84.1789 78.25 86.25 78.25Z" stroke="#6CBF8B" stroke-width="4" stroke-miterlimit="10"/>
<path d="M99.25 63.25C101.321 63.25 103 61.5711 103 59.5C103 57.4289 101.321 55.75 99.25 55.75C97.1789 55.75 95.5 57.4289 95.5 59.5C95.5 61.5711 97.1789 63.25 99.25 63.25Z" stroke="#6CBF8B" stroke-width="4" stroke-miterlimit="10"/>
<path d="M34.5 48.25C36.5711 48.25 38.25 46.5711 38.25 44.5C38.25 42.4289 36.5711 40.75 34.5 40.75C32.4289 40.75 30.75 42.4289 30.75 44.5C30.75 46.5711 32.4289 48.25 34.5 48.25Z" stroke="#6CBF8B" stroke-width="4" stroke-miterlimit="10"/>
<path d="M34.5 78.25C36.5711 78.25 38.25 76.5711 38.25 74.5C38.25 72.4289 36.5711 70.75 34.5 70.75C32.4289 70.75 30.75 72.4289 30.75 74.5C30.75 76.5711 32.4289 78.25 34.5 78.25Z" stroke="#6CBF8B" stroke-width="4" stroke-miterlimit="10"/>
<path d="M21.5 63.25C23.5711 63.25 25.25 61.5711 25.25 59.5C25.25 57.4289 23.5711 55.75 21.5 55.75C19.4289 55.75 17.75 57.4289 17.75 59.5C17.75 61.5711 19.4289 63.25 21.5 63.25Z" stroke="#6CBF8B" stroke-width="4" stroke-miterlimit="10"/>
<path d="M80 29.25C82.0711 29.25 83.75 27.5711 83.75 25.5C83.75 23.4289 82.0711 21.75 80 21.75C77.9289 21.75 76.25 23.4289 76.25 25.5C76.25 27.5711 77.9289 29.25 80 29.25Z" stroke="#6CBF8B" stroke-width="4" stroke-miterlimit="10"/>
<path d="M41 29.25C43.0711 29.25 44.75 27.5711 44.75 25.5C44.75 23.4289 43.0711 21.75 41 21.75C38.9289 21.75 37.25 23.4289 37.25 25.5C37.25 27.5711 38.9289 29.25 41 29.25Z" stroke="#6CBF8B" stroke-width="4" stroke-miterlimit="10"/>
<path d="M60.75 33.25C62.8211 33.25 64.5 31.5711 64.5 29.5C64.5 27.4289 62.8211 25.75 60.75 25.75C58.6789 25.75 57 27.4289 57 29.5C57 31.5711 58.6789 33.25 60.75 33.25Z" stroke="#6CBF8B" stroke-width="4" stroke-miterlimit="10"/>
<path d="M80 98.25C82.0711 98.25 83.75 96.5711 83.75 94.5C83.75 92.4289 82.0711 90.75 80 90.75C77.9289 90.75 76.25 92.4289 76.25 94.5C76.25 96.5711 77.9289 98.25 80 98.25Z" stroke="#6CBF8B" stroke-width="4" stroke-miterlimit="10"/>
<path d="M41 98.25C43.0711 98.25 44.75 96.5711 44.75 94.5C44.75 92.4289 43.0711 90.75 41 90.75C38.9289 90.75 37.25 92.4289 37.25 94.5C37.25 96.5711 38.9289 98.25 41 98.25Z" stroke="#6CBF8B" stroke-width="4" stroke-miterlimit="10"/>
<path d="M60.75 94.25C62.8211 94.25 64.5 92.5711 64.5 90.5C64.5 88.4289 62.8211 86.75 60.75 86.75C58.6789 86.75 57 88.4289 57 90.5C57 92.5711 58.6789 94.25 60.75 94.25Z" stroke="#6CBF8B" stroke-width="4" stroke-miterlimit="10"/>
<path d="M43 64.5C45.7614 64.5 48 62.2614 48 59.5C48 56.7386 45.7614 54.5 43 54.5C40.2386 54.5 38 56.7386 38 59.5C38 62.2614 40.2386 64.5 43 64.5Z" stroke="#6CBF8B" stroke-width="4" stroke-miterlimit="10"/>
<path d="M51.75 79.5C54.5114 79.5 56.75 77.2614 56.75 74.5C56.75 71.7386 54.5114 69.5 51.75 69.5C48.9886 69.5 46.75 71.7386 46.75 74.5C46.75 77.2614 48.9886 79.5 51.75 79.5Z" stroke="#6CBF8B" stroke-width="4" stroke-miterlimit="10"/>
<path d="M69.25 79.5C72.0114 79.5 74.25 77.2614 74.25 74.5C74.25 71.7386 72.0114 69.5 69.25 69.5C66.4886 69.5 64.25 71.7386 64.25 74.5C64.25 77.2614 66.4886 79.5 69.25 79.5Z" stroke="#6CBF8B" stroke-width="4" stroke-miterlimit="10"/>
<path d="M60.5 11.7501V11.7501" stroke="#6CBF8B" stroke-width="3" stroke-linecap="round" stroke-linejoin="round"/>
<path d="M88 13.7499V13.7499" stroke="#6CBF8B" stroke-width="2.5" stroke-linecap="round" stroke-linejoin="round"/>
<path d="M88 105.5V105.5" stroke="#6CBF8B" stroke-width="2.5" stroke-linecap="round" stroke-linejoin="round"/>
<path d="M100.5 82V82" stroke="#6CBF8B" stroke-width="2.5" stroke-linecap="round" stroke-linejoin="round"/>
<path d="M100.5 34.5V34.5" stroke="#6CBF8B" stroke-width="2.5" stroke-linecap="round" stroke-linejoin="round"/>
<path d="M20.5 82V82" stroke="#6CBF8B" stroke-width="2.5" stroke-linecap="round" stroke-linejoin="round"/>
<path d="M20.5 34.5V34.5" stroke="#6CBF8B" stroke-width="2.5" stroke-linecap="round" stroke-linejoin="round"/>
<path d="M33 13.7499V13.7499" stroke="#6CBF8B" stroke-width="2.5" stroke-linecap="round" stroke-linejoin="round"/>
<path d="M33 105.5V105.5" stroke="#6CBF8B" stroke-width="2.5" stroke-linecap="round" stroke-linejoin="round"/>
<path d="M60.5 107V107" stroke="#6CBF8B" stroke-width="3" stroke-linecap="round" stroke-linejoin="round"/>
<path d="M8.25 59.5V59.5" stroke="#6CBF8B" stroke-width="5" stroke-linecap="round" stroke-linejoin="round"/>
<path d="M113 59.5V59.5" stroke="#6CBF8B" stroke-width="5" stroke-linecap="round" stroke-linejoin="round"/>
</svg>
