<svg width="121" height="119" viewBox="0 0 121 119" fill="none" xmlns="http://www.w3.org/2000/svg">
<path d="M32.3501 46.5499C11.9501 47.9999 12.0001 77.5499 32.3501 78.9999H80.6501C86.5001 79.0499 92.1502 76.85 96.5002 72.9C110.8 60.4 103.15 35.3998 84.3002 32.9998C77.5502 -7.70016 18.6001 7.74995 32.5501 46.5499" stroke="#6CBF8B" stroke-width="6.5" stroke-miterlimit="10" stroke-linecap="round" stroke-linejoin="round"/>
<path d="M60.5 79V94" stroke="#6CBF8B" stroke-width="6.5" stroke-miterlimit="10" stroke-linecap="round" stroke-linejoin="round"/>
<path d="M60.5 114C66.0228 114 70.5 109.523 70.5 104C70.5 98.4772 66.0228 94 60.5 94C54.9772 94 50.5 98.4772 50.5 104C50.5 109.523 54.9772 114 60.5 114Z" stroke="#6CBF8B" stroke-width="6.5" stroke-miterlimit="10" stroke-linecap="round" stroke-linejoin="round"/>
<path d="M90.5 104H70.5" stroke="#6CBF8B" stroke-width="6.5" stroke-miterlimit="10" stroke-linecap="round" stroke-linejoin="round"/>
<path d="M50.5 104H30.5" stroke="#6CBF8B" stroke-width="6.5" stroke-miterlimit="10" stroke-linecap="round" stroke-linejoin="round"/>
</svg>
