<svg width="110" height="42" viewBox="0 0 110 42" fill="none" xmlns="http://www.w3.org/2000/svg">
<path fill-rule="evenodd" clip-rule="evenodd" d="M108.659 20.3474L108.659 20.3476C108.356 21.485 107.214 25.7716 103.681 25.7716C102.104 25.7716 101.003 24.6105 100.343 23.1954C105.258 22.1069 106.908 18.2608 106.908 15.6484C106.908 12.6005 104.708 11.4757 102.837 11.4757C99.7931 11.4757 95.7955 14.3059 95.7955 19.7847C95.7955 20.2927 95.8322 20.7644 95.8689 21.1998C94.8053 20.8733 93.8884 20.329 93.265 19.3856C94.1818 15.3218 94.0351 11.4394 92.128 11.4394C91.0644 11.4394 90.1476 12.8182 90.1476 15.8661C90.1476 17.0634 90.4776 18.406 91.1011 19.6033C90.6977 21.4538 89.3774 25.953 87.6536 25.953C85.6184 25.953 85.8994 17.6325 86.01 14.3564C86.027 13.8543 86.0399 13.4706 86.0399 13.2536C86.0399 11.9111 82.7759 10.5323 82.079 11.2217C81.7856 11.512 81.7123 13.3262 81.7123 15.6484C81.7123 17.5714 81.859 19.821 82.2991 21.9255C82.079 23.0503 81.0888 25.9893 79.2917 25.9893C76.9949 25.9893 77.537 18.8688 77.799 15.4291V15.429C77.8549 14.6945 77.8981 14.1279 77.8981 13.8342C77.8981 12.6368 74.7807 11.512 74.0105 12.2377C73.7171 12.528 73.497 14.6687 73.497 17.9705C73.497 19.3493 73.5704 20.8007 73.7904 22.1795C73.497 23.6308 72.3234 25.9893 70.453 25.9893C67.4583 25.9893 68.7549 14.6198 69.5626 7.53768L69.5728 7.44819C70.0488 7.37575 70.5613 7.3033 71.0739 7.23086L71.0765 7.23049C71.181 7.21899 71.2875 7.20682 71.3948 7.19453L71.3973 7.19423C72.6442 7.0515 74.0105 6.89509 74.0105 7.62961C74.0105 9.48009 75.2574 10.0606 76.1743 10.0606C77.2012 10.0606 78.0814 9.2624 78.0814 7.73846C78.0814 6.25082 76.7611 4.83574 74.4506 4.83574C72.9102 4.83574 71.3332 5.01716 69.7928 5.27115C69.8223 4.95031 69.8518 4.65032 69.8792 4.37186C69.9539 3.61111 70.0129 3.01113 70.0129 2.58614C70.0129 1.02593 66.7488 -0.497996 66.0887 0.155119C65.9786 0.263967 65.5385 2.73128 65.1351 6.17826C62.8612 6.61366 60.6241 7.01278 58.3869 7.01278C57.6167 7.01278 57.7267 9.33496 60.3307 9.33496C61.8343 9.33496 63.338 9.00841 64.8784 8.60928C64.6583 11.004 64.5116 13.6528 64.5116 16.1926C64.5116 18.4785 64.6583 20.4741 64.9517 22.1795C64.6583 23.4494 63.7414 26.0256 62.0177 26.0256C59.2716 26.0256 59.9017 18.215 60.191 14.6289C60.2494 13.9046 60.294 13.3527 60.294 13.0722C60.294 12.274 57.2866 10.5323 56.6631 11.1492C56.5898 11.2217 56.5164 11.7297 56.5164 11.7297C56.5164 11.7297 56.113 11.4394 55.0128 11.4394C50.7951 11.4394 47.421 16.5918 47.421 21.2724C47.421 21.4901 47.421 21.7078 47.4577 21.9255C46.7975 23.4494 45.1471 26.0619 42.1764 26.0619C40.6728 26.0619 39.6092 25.0822 38.8757 23.8123C43.4967 22.506 45.2938 18.5148 45.2938 15.9386C45.2938 12.9271 42.7266 11.4394 40.8561 11.4394C37.592 11.4394 34.0346 14.6687 34.0346 20.1113C34.0346 21.7078 34.328 23.0503 34.8414 24.2114C34.2546 25.1185 33.3744 26.0256 32.1641 26.0256C29.3988 26.0256 30.4272 18.4946 30.8883 15.1179L30.8883 15.1178C30.9899 14.3745 31.0639 13.8325 31.0639 13.6165C31.0639 13.3262 31.0639 12.7457 30.5137 12.3828C30.0204 12.0232 27.8357 11.6635 26.1203 11.3811L26.1199 11.3811L26.1187 11.3808L26.1181 11.3808C25.4116 11.2644 24.7848 11.1613 24.389 11.0766V10.2783C24.389 8.10131 23.032 7.62961 22.1151 7.62961C20.6114 7.62961 20.318 9.29867 20.318 9.6978C20.318 10.0969 20.4281 11.512 21.9317 12.3465C21.9317 16.3741 19.3278 25.9167 12.3595 25.9167C7.07831 25.9167 5.1712 20.5467 5.1712 16.5555C5.1712 9.80665 9.16879 4.61805 11.7361 4.61805C13.3452 4.61805 13.4409 6.16044 13.5369 7.70718C13.6334 9.26269 13.7302 10.8226 15.3669 10.8226C17.6408 10.8226 17.9708 8.64557 17.9708 7.62961C17.9708 5.74285 15.9904 2.2233 11.7361 2.2233C4.98782 2.2233 0 10.3509 0 17.3174C0 24.03 4.65775 29.4 11.1859 29.4C21.2716 29.4 23.7655 18.8051 24.279 12.8908C24.5132 12.9552 24.863 13.0333 25.2234 13.1137L25.2235 13.1137C25.8784 13.26 26.5682 13.414 26.6628 13.5076C26.7798 13.6233 26.6837 14.4317 26.5443 15.6034C26.3777 17.004 26.1494 18.9239 26.1494 20.8007C26.1494 25.1185 27.5797 28.6018 31.0272 28.6018C33.191 28.6018 34.9148 27.0415 35.8316 25.8442C37.2253 27.6221 39.2424 28.5292 41.2229 28.5292C44.6337 28.5292 46.8709 26.4247 47.9711 24.7557C48.9247 27.2955 50.8685 28.5292 52.6289 28.5292C55.0861 28.5292 56.5531 25.2636 56.6265 24.7557C57.36 27.0415 59.0837 28.6018 61.0275 28.6018C63.4847 28.6018 64.9884 26.3884 65.5752 25.0096C66.4554 27.3318 67.8491 28.6018 69.8662 28.6018C72.1767 28.6018 73.6804 26.5336 74.3772 25.1548C75.1107 27.1867 76.321 28.6018 78.2281 28.6018C80.7954 28.6018 82.4091 25.9893 82.9226 24.6831C83.7661 26.9327 85.0864 28.5292 87.1402 28.5292C89.4141 28.5292 91.3945 25.2999 92.5681 21.6715C93.5217 22.5786 94.7686 23.2317 96.2723 23.4131C97.4092 26.6787 100.087 28.4929 102.911 28.4929C107.825 28.4929 109.732 23.4857 109.952 22.3246C110.246 21.1272 109.109 19.7122 108.742 20.075C108.728 20.0885 108.702 20.1864 108.659 20.3474ZM40.7094 12.9996C42.7632 12.9996 41.553 20.7644 38.1788 22.0343C37.9221 21.1998 37.8121 20.4016 37.8121 19.7847C37.7754 17.1723 38.839 12.9996 40.7094 12.9996ZM53.2157 25.3362C49.6215 25.3362 52.1521 13.0359 55.0127 13.0359C56.9199 13.0359 56.6265 25.3362 53.2157 25.3362ZM102.36 13.0721C104.341 13.0721 103.204 21.0909 99.7565 21.5989C99.5731 20.9458 99.4997 20.2927 99.4997 19.7847C99.4997 17.1722 100.49 13.0721 102.36 13.0721ZM34.2157 34.2998H33.0224C32.9478 34.2998 32.8732 34.3375 32.8359 34.413L30.7104 37.9988C30.5985 38.1121 30.5239 38.1121 30.4493 37.9988L28.3984 34.413C28.3611 34.3375 28.2865 34.2998 28.2119 34.2998H27.0559C26.9067 34.2998 26.7949 34.413 26.7949 34.564V41.7356C26.7949 41.8866 26.9067 41.9998 27.0559 41.9998H28.2119C28.3611 41.9998 28.4729 41.8866 28.4729 41.7356V38.0366C28.4729 37.8101 28.6967 37.6969 28.8458 37.8856L30.4493 40.5277C30.5612 40.6787 30.7477 40.6787 30.8222 40.5277L32.463 37.8856C32.6122 37.6969 32.8359 37.8101 32.8359 38.0366V41.7356C32.8359 41.8866 32.9478 41.9998 33.097 41.9998H34.2902C34.4394 41.9998 34.5513 41.8866 34.5513 41.7356V34.564C34.4767 34.413 34.3648 34.2998 34.2157 34.2998ZM42.5887 34.2999C42.6973 34.2999 42.7697 34.3758 42.8059 34.4517L45.8107 41.6586C45.8831 41.8103 45.7745 41.9999 45.5934 41.9999H44.3988C44.2902 41.9999 44.2178 41.9241 44.1816 41.8482L43.7109 40.6344C43.6747 40.5586 43.6023 40.4827 43.4937 40.4827H40.4165C40.3079 40.4827 40.2355 40.5586 40.1993 40.6344L39.7649 41.8482C39.7287 41.9241 39.6563 41.9999 39.5477 41.9999H38.3168C38.1358 41.9999 38.0272 41.8103 38.0996 41.6586L41.1406 34.4517C41.1768 34.3758 41.2492 34.2999 41.3578 34.2999H42.5887ZM41.213 39.0033H42.7697C42.9145 39.0033 43.0593 38.8137 43.0231 38.6619L42.2266 36.5757C42.1542 36.3861 41.8646 36.3861 41.7922 36.5757L40.9958 38.6619C40.9234 38.8137 41.032 39.0033 41.213 39.0033ZM64.3804 37.5081C64.3092 37.5836 64.3092 37.7346 64.3804 37.8101L66.9445 41.6223C67.0514 41.7733 66.9445 41.9998 66.7665 41.9998H65.4132C65.342 41.9998 65.2707 41.9621 65.2351 41.8866L63.4545 39.1689C63.3832 39.0557 63.2052 39.0557 63.0983 39.1689L62.1724 40.339C62.1724 40.3579 62.1635 40.3862 62.1546 40.4145C62.1457 40.4428 62.1368 40.4711 62.1368 40.49V41.7356C62.1368 41.8488 62.0656 41.9621 61.9231 41.9621H60.8547C60.7479 41.9621 60.641 41.8866 60.641 41.7356V34.5263C60.641 34.413 60.7123 34.2998 60.8547 34.2998H61.9231C62.0299 34.2998 62.1368 34.3753 62.1368 34.5263V37.4704C62.1368 37.6969 62.3861 37.8101 62.5285 37.6214L64.9858 34.3753C65.0214 34.3375 65.0927 34.2998 65.1639 34.2998H66.3747C66.5528 34.2998 66.6596 34.5263 66.5528 34.6772L64.3804 37.5081ZM76.5971 40.4446H73.0842C72.9378 40.4446 72.828 40.3308 72.828 40.1791V39.0412C72.828 38.8895 72.9378 38.7757 73.0842 38.7757H75.4262C75.5725 38.7757 75.6823 38.6619 75.6823 38.5101V37.6757C75.6823 37.5239 75.5725 37.4101 75.4262 37.4101H73.0842C72.9378 37.4101 72.828 37.2964 72.828 37.1446V36.0446C72.828 35.8929 72.9378 35.7791 73.0842 35.7791H76.341C76.4874 35.7791 76.5971 35.6653 76.5971 35.5136V34.5653C76.5971 34.4136 76.4874 34.2998 76.341 34.2998H71.4741C71.3277 34.2998 71.2179 34.4136 71.2179 34.5653V41.7343C71.2179 41.886 71.3277 41.9998 71.4741 41.9998H76.5971C76.7435 41.9998 76.8533 41.886 76.8533 41.7343V40.786C76.8899 40.5584 76.7435 40.4446 76.5971 40.4446ZM80.6039 34.2998H86.5609C86.6706 34.2998 86.7802 34.4043 86.7071 34.5088V35.4142C86.7071 35.5187 86.634 35.6232 86.4878 35.6232H84.5509C84.4412 35.6232 84.3316 35.6928 84.3316 35.8321V41.0908C84.3316 41.1953 84.2585 41.2998 84.1123 41.2998H82.9794C82.8698 41.2998 82.7601 41.2302 82.7601 41.0908V35.8321C82.7601 35.7277 82.687 35.6232 82.5408 35.6232H80.6039C80.4943 35.6232 80.3846 35.5535 80.3846 35.4142V34.5088C80.3846 34.4043 80.4577 34.2998 80.6039 34.2998ZM52.5016 34.2999C54.5212 34.2999 55.7051 35.5078 55.7051 37.1686C55.7051 38.1877 55.2873 38.8671 54.7301 39.3578C54.6605 39.4333 54.6257 39.5465 54.6605 39.6597L55.6007 41.6602C55.6703 41.8112 55.5658 41.9999 55.3917 41.9999H54.173C54.0685 41.9999 53.9989 41.9244 53.9641 41.849L53.1632 40.1127C53.1066 39.99 53.05 39.9919 52.9001 39.997C52.8655 39.9981 52.8259 39.9994 52.7802 39.9994H52.6409H51.8052C51.5962 39.9994 51.5614 40.0372 51.5614 40.2259V41.7357C51.5614 41.849 51.4918 41.9622 51.3525 41.9622H50.273C50.1686 41.9622 50.0641 41.8867 50.0641 41.7357V34.5642C50.0641 34.4509 50.1337 34.3377 50.273 34.3377C51.0391 34.2999 51.7703 34.2999 52.5016 34.2999ZM52.3275 38.5358C52.4203 38.5316 52.5132 38.5274 52.606 38.5274C53.6855 38.4519 54.173 37.8857 54.173 37.1686C54.173 36.3004 53.4766 35.8475 52.5712 35.8097C52.2578 35.772 52.0141 35.772 51.7703 35.772C51.6659 35.772 51.5614 35.8475 51.5614 35.9985V38.3009C51.5614 38.4141 51.6311 38.5274 51.7703 38.5274C51.9561 38.5525 52.1418 38.5442 52.3275 38.5358Z" fill="#2E3E5C"/>
</svg>
