<svg width="91" height="31" viewBox="0 0 91 31" fill="none" xmlns="http://www.w3.org/2000/svg">
<g clip-path="url(#clip0_97_442)">
<path d="M15.0352 15.9581C15.0352 13.1967 17.2737 10.9581 20.0351 10.9581C22.7965 10.9581 25.0351 13.1968 25.0351 15.9581C25.0351 18.7196 22.7965 20.9581 20.0351 20.9581C17.2737 20.9581 15.0352 18.7195 15.0352 15.9581Z" fill="#00BCFF"/>
<path d="M5.03516 25.9581C5.03516 23.1967 7.27373 20.9582 10.0351 20.9582L12.6997 19.5514L15.0351 20.9582V25.9581C15.0351 28.7196 12.7965 30.9581 10.0351 30.9581C7.27373 30.9581 5.03516 28.7196 5.03516 25.9581Z" fill="#00CF7F"/>
<path d="M15.0352 0.95813L12.3145 5.68489L15.0352 10.9581H19.965C22.7265 10.9581 24.965 8.71952 24.965 5.95811C24.965 3.1967 22.7264 0.95813 19.965 0.95813H15.0352Z" fill="#FF7361"/>
<path d="M4.96484 5.95811C4.96484 8.71952 7.20342 10.9581 9.96482 10.9581L12.6172 11.9825L15.0349 10.9581V0.95813H9.96477C7.20342 0.95813 4.96484 3.1967 4.96484 5.95811Z" fill="#FF4D12"/>
<path d="M5.03516 15.9581C5.03516 18.7196 7.27373 20.9581 10.0351 20.9581H15.0351V10.9581H10.0351C7.27373 10.9581 5.03516 13.1967 5.03516 15.9581Z" fill="#B659FF"/>
</g>
<path d="M46.4047 10.7901V12.5981H41.7487V15.4621H45.3167V17.2381H41.7487V21.9581H39.5087V10.7901H46.4047ZM49.3291 12.0381C48.9344 12.0381 48.6037 11.9155 48.3371 11.6701C48.0811 11.4141 47.9531 11.0995 47.9531 10.7261C47.9531 10.3528 48.0811 10.0435 48.3371 9.79813C48.6037 9.54213 48.9344 9.41413 49.3291 9.41413C49.7237 9.41413 50.0491 9.54213 50.3051 9.79813C50.5717 10.0435 50.7051 10.3528 50.7051 10.7261C50.7051 11.0995 50.5717 11.4141 50.3051 11.6701C50.0491 11.9155 49.7237 12.0381 49.3291 12.0381ZM50.4331 13.0941V21.9581H48.1931V13.0941H50.4331ZM56.3182 12.9501C56.9795 12.9501 57.5609 13.0835 58.0622 13.3501C58.5635 13.6061 58.9582 13.9421 59.2462 14.3581V13.0941H61.5022V22.0221C61.5022 22.8435 61.3369 23.5741 61.0062 24.2141C60.6755 24.8648 60.1795 25.3768 59.5182 25.7501C58.8569 26.1341 58.0569 26.3261 57.1182 26.3261C55.8595 26.3261 54.8249 26.0328 54.0142 25.4461C53.2142 24.8595 52.7609 24.0595 52.6542 23.0461H54.8782C54.9955 23.4515 55.2462 23.7715 55.6302 24.0061C56.0249 24.2515 56.4995 24.3741 57.0542 24.3741C57.7049 24.3741 58.2329 24.1768 58.6382 23.7821C59.0435 23.3981 59.2462 22.8115 59.2462 22.0221V20.6461C58.9582 21.0621 58.5582 21.4088 58.0462 21.6861C57.5449 21.9635 56.9689 22.1021 56.3182 22.1021C55.5715 22.1021 54.8889 21.9101 54.2702 21.5261C53.6515 21.1421 53.1609 20.6035 52.7982 19.9101C52.4462 19.2061 52.2702 18.4008 52.2702 17.4941C52.2702 16.5981 52.4462 15.8035 52.7982 15.1101C53.1609 14.4168 53.6462 13.8835 54.2542 13.5101C54.8729 13.1368 55.5609 12.9501 56.3182 12.9501ZM59.2462 17.5261C59.2462 16.9821 59.1395 16.5181 58.9262 16.1341C58.7129 15.7395 58.4249 15.4408 58.0622 15.2381C57.6995 15.0248 57.3102 14.9181 56.8942 14.9181C56.4782 14.9181 56.0942 15.0195 55.7422 15.2221C55.3902 15.4248 55.1022 15.7235 54.8782 16.1181C54.6649 16.5021 54.5582 16.9608 54.5582 17.4941C54.5582 18.0275 54.6649 18.4968 54.8782 18.9021C55.1022 19.2968 55.3902 19.6008 55.7422 19.8141C56.1049 20.0275 56.4889 20.1341 56.8942 20.1341C57.3102 20.1341 57.6995 20.0328 58.0622 19.8301C58.4249 19.6168 58.7129 19.3181 58.9262 18.9341C59.1395 18.5395 59.2462 18.0701 59.2462 17.5261ZM74.8979 12.9661C75.9859 12.9661 76.8606 13.3021 77.5219 13.9741C78.1939 14.6355 78.5299 15.5635 78.5299 16.7581V21.9581H76.2899V17.0621C76.2899 16.3688 76.1139 15.8408 75.7619 15.4781C75.4099 15.1048 74.9299 14.9181 74.3219 14.9181C73.7139 14.9181 73.2286 15.1048 72.8659 15.4781C72.5139 15.8408 72.3379 16.3688 72.3379 17.0621V21.9581H70.0979V17.0621C70.0979 16.3688 69.9219 15.8408 69.5699 15.4781C69.2179 15.1048 68.7379 14.9181 68.1299 14.9181C67.5113 14.9181 67.0206 15.1048 66.6579 15.4781C66.3059 15.8408 66.1299 16.3688 66.1299 17.0621V21.9581H63.8899V13.0941H66.1299V14.1661C66.4179 13.7928 66.7859 13.4995 67.2339 13.2861C67.6926 13.0728 68.1939 12.9661 68.7379 12.9661C69.4313 12.9661 70.0499 13.1155 70.5939 13.4141C71.1379 13.7021 71.5593 14.1181 71.8579 14.6621C72.1459 14.1501 72.5619 13.7395 73.1059 13.4301C73.6606 13.1208 74.2579 12.9661 74.8979 12.9661ZM80.2796 17.4941C80.2796 16.5981 80.4556 15.8035 80.8076 15.1101C81.1702 14.4168 81.6556 13.8835 82.2636 13.5101C82.8822 13.1368 83.5702 12.9501 84.3276 12.9501C84.9889 12.9501 85.5649 13.0835 86.0556 13.3501C86.5569 13.6168 86.9569 13.9528 87.2556 14.3581V13.0941H89.5116V21.9581H87.2556V20.6621C86.9676 21.0781 86.5676 21.4248 86.0556 21.7021C85.5542 21.9688 84.9729 22.1021 84.3116 22.1021C83.5649 22.1021 82.8822 21.9101 82.2636 21.5261C81.6556 21.1421 81.1702 20.6035 80.8076 19.9101C80.4556 19.2061 80.2796 18.4008 80.2796 17.4941ZM87.2556 17.5261C87.2556 16.9821 87.1489 16.5181 86.9356 16.1341C86.7222 15.7395 86.4342 15.4408 86.0716 15.2381C85.7089 15.0248 85.3196 14.9181 84.9036 14.9181C84.4876 14.9181 84.1036 15.0195 83.7516 15.2221C83.3996 15.4248 83.1116 15.7235 82.8876 16.1181C82.6742 16.5021 82.5676 16.9608 82.5676 17.4941C82.5676 18.0275 82.6742 18.4968 82.8876 18.9021C83.1116 19.2968 83.3996 19.6008 83.7516 19.8141C84.1142 20.0275 84.4982 20.1341 84.9036 20.1341C85.3196 20.1341 85.7089 20.0328 86.0716 19.8301C86.4342 19.6168 86.7222 19.3181 86.9356 18.9341C87.1489 18.5395 87.2556 18.0701 87.2556 17.5261Z" fill="#FF4D12"/>
<defs>
<clipPath id="clip0_97_442">
<rect width="30" height="30" fill="white" transform="translate(0 0.95813)"/>
</clipPath>
</defs>
</svg>
