<svg width="92" height="31" viewBox="0 0 92 31" fill="none" xmlns="http://www.w3.org/2000/svg">
<g clip-path="url(#clip0_97_198)">
<path d="M17.8077 0.790833L2.88672 15.7118L7.50505 20.3302L27.0445 0.790833H17.8077Z" fill="#47C5FB"/>
<path d="M17.704 14.5507L9.71484 22.5398L14.3505 27.2448L18.9604 22.635L27.0447 14.5507H17.704Z" fill="#47C5FB"/>
<path d="M14.3506 27.2448L17.8599 30.7541H27.0447L18.9603 22.635L14.3506 27.2448Z" fill="#00569E"/>
<path d="M9.6626 22.5918L14.281 17.9734L18.96 22.6351L14.3503 27.2449L9.6626 22.5918Z" fill="#00B5F8"/>
<path d="M14.3501 27.2449L18.1886 25.9711L18.5699 23.025L14.3501 27.2449Z" fill="url(#paint0_linear_97_198)" fill-opacity="0.8"/>
</g>
<path d="M46.2672 10.6228V12.4308H41.6112V15.2948H45.1792V17.0708H41.6112V21.7908H39.3712V10.6228H46.2672ZM50.2956 9.95077V21.7908H48.0556V9.95077H50.2956ZM61.0767 12.9268V21.7908H58.8207V20.6708C58.5327 21.0548 58.154 21.3588 57.6847 21.5828C57.226 21.7961 56.7247 21.9028 56.1807 21.9028C55.4874 21.9028 54.874 21.7588 54.3407 21.4708C53.8074 21.1721 53.386 20.7401 53.0767 20.1748C52.778 19.5988 52.6287 18.9161 52.6287 18.1268V12.9268H54.8687V17.8068C54.8687 18.5108 55.0447 19.0548 55.3967 19.4388C55.7487 19.8121 56.2287 19.9988 56.8367 19.9988C57.4554 19.9988 57.9407 19.8121 58.2927 19.4388C58.6447 19.0548 58.8207 18.5108 58.8207 17.8068V12.9268H61.0767ZM66.0948 14.7668V19.0548C66.0948 19.3534 66.1641 19.5721 66.3028 19.7108C66.4521 19.8388 66.6975 19.9028 67.0388 19.9028H68.0788V21.7908H66.6708C64.7828 21.7908 63.8388 20.8734 63.8388 19.0388V14.7668H62.7828V12.9268H63.8388V10.7348H66.0948V12.9268H68.0788V14.7668H66.0948ZM72.4979 14.7668V19.0548C72.4979 19.3534 72.5673 19.5721 72.7059 19.7108C72.8553 19.8388 73.1006 19.9028 73.4419 19.9028H74.4819V21.7908H73.0739C71.1859 21.7908 70.2419 20.8734 70.2419 19.0388V14.7668H69.1859V12.9268H70.2419V10.7348H72.4979V12.9268H74.4819V14.7668H72.4979ZM84.5331 17.1668C84.5331 17.4868 84.5117 17.7748 84.4691 18.0308H77.9891C78.0424 18.6708 78.2664 19.1721 78.6611 19.5348C79.0557 19.8974 79.5411 20.0788 80.1171 20.0788C80.9491 20.0788 81.5411 19.7214 81.8931 19.0068H84.3091C84.0531 19.8601 83.5624 20.5641 82.8371 21.1188C82.1117 21.6628 81.2211 21.9348 80.1651 21.9348C79.3117 21.9348 78.5437 21.7481 77.8611 21.3748C77.1891 20.9908 76.6611 20.4521 76.2771 19.7588C75.9037 19.0654 75.7171 18.2654 75.7171 17.3588C75.7171 16.4414 75.9037 15.6361 76.2771 14.9428C76.6504 14.2494 77.1731 13.7161 77.8451 13.3428C78.5171 12.9694 79.2904 12.7828 80.1651 12.7828C81.0077 12.7828 81.7597 12.9641 82.4211 13.3268C83.0931 13.6894 83.6104 14.2068 83.9731 14.8788C84.3464 15.5401 84.5331 16.3028 84.5331 17.1668ZM82.2131 16.5268C82.2024 15.9508 81.9944 15.4921 81.5891 15.1508C81.1837 14.7988 80.6877 14.6228 80.1011 14.6228C79.5464 14.6228 79.0771 14.7934 78.6931 15.1348C78.3197 15.4654 78.0904 15.9294 78.0051 16.5268H82.2131ZM88.6081 14.3028C88.8961 13.8334 89.2694 13.4654 89.7281 13.1988C90.1974 12.9321 90.7307 12.7988 91.3281 12.7988V15.1508H90.7361C90.0321 15.1508 89.4987 15.3161 89.1361 15.6468C88.7841 15.9774 88.6081 16.5534 88.6081 17.3748V21.7908H86.3681V12.9268H88.6081V14.3028Z" fill="#00569E"/>
<defs>
<linearGradient id="paint0_linear_97_198" x1="31.0255" y1="136.933" x2="334.621" y2="246.334" gradientUnits="userSpaceOnUse">
<stop/>
<stop offset="1" stop-opacity="0"/>
</linearGradient>
<clipPath id="clip0_97_198">
<rect width="30" height="30" fill="white" transform="translate(0 0.790771)"/>
</clipPath>
</defs>
</svg>
