<svg width="109" height="36" viewBox="0 0 109 36" fill="none" xmlns="http://www.w3.org/2000/svg">
<path fill-rule="evenodd" clip-rule="evenodd" d="M14.0572 12.6859H26.8107C26.8107 12.6859 27.0374 13.6002 27.0374 15.2002C27.0374 22.8001 21.5959 27.8858 14.1706 27.8858C5.72491 27.8858 0 20.9716 0 13.8859C0 6.62887 6.065 -0.0567805 13.9438 0.000363687C20.1222 0.000363687 23.5231 3.77175 23.5231 3.77175L20.9158 6.51459C20.9158 6.51459 18.4217 3.77175 14.1139 3.77175C8.55902 3.77175 4.13781 8.22885 4.13781 14.0002C4.13781 19.8859 8.78575 24.1144 14.1139 24.1144C18.2517 24.1144 22.6729 21.7716 23.1264 16.4573H14.0572V12.6859ZM37.1836 9.88586C31.9688 9.88586 28.2278 14.0001 28.2278 18.8001C28.2278 23.7143 31.8554 27.8857 37.2969 27.8857C42.2283 27.8857 46.196 24.1714 46.196 18.9143C46.1394 12.9715 41.4914 9.88586 37.1836 9.88586ZM37.2402 13.4858C39.791 13.4858 42.2283 15.6001 42.2283 18.9144C42.2283 22.2286 39.8476 24.3429 37.2402 24.3429C34.4061 24.3429 32.1955 22.0572 32.1955 18.8572C32.1388 15.7715 34.3495 13.4858 37.2402 13.4858ZM47.7265 18.8001C47.7265 14.0001 51.4675 9.88586 56.6823 9.88586C60.9901 9.88586 65.6381 12.9715 65.6947 18.9143C65.6947 24.1714 61.727 27.8857 56.7956 27.8857C51.3541 27.8857 47.7265 23.7143 47.7265 18.8001ZM61.727 18.9144C61.727 15.6001 59.2897 13.4858 56.739 13.4858C53.8482 13.4858 51.6375 15.7715 51.6942 18.8572C51.6942 22.0572 53.9048 24.3429 56.739 24.3429C59.3463 24.3429 61.727 22.2286 61.727 18.9144ZM75.7842 9.94311C70.9662 9.94311 67.2252 14.1716 67.2252 18.9144C67.2252 24.2858 71.5897 27.9429 75.6708 27.9429C78.2215 27.9429 79.5252 26.9715 80.6022 25.7715V27.5429C80.6022 30.6286 78.7317 32.5143 75.8976 32.5143C73.1768 32.5143 71.8164 30.4572 71.3063 29.3143L67.8487 30.7429C69.039 33.3143 71.4763 36 75.8409 36C80.6022 36 84.2298 32.9714 84.2298 26.6287V10.4574H80.4888V12.0002C79.4685 10.7431 77.8814 9.94311 75.7842 9.94311ZM76.1243 13.4858C78.4483 13.4858 80.8856 15.543 80.8856 18.9715C80.8856 22.5143 78.5049 24.4 76.0676 24.4C73.5169 24.4 71.1362 22.2857 71.1362 19.0286C71.1929 15.4858 73.6303 13.4858 76.1243 13.4858ZM92.6755 18.8572C92.6755 13.4858 96.4732 9.88586 101.008 9.88586C104.522 9.88586 107.186 12.2858 108.376 15.0287L109 16.5144L97.04 21.5429C97.7769 22.9143 98.9106 24.2857 101.405 24.2857C103.615 24.2857 104.976 23.0857 105.769 21.8286L108.887 23.9429C107.526 25.7714 105.146 27.8857 101.405 27.8857C96.9267 27.8857 92.6755 24.5143 92.6755 18.8572ZM104.465 15.3144C103.899 14.2287 102.765 13.3716 101.121 13.3716C98.5705 13.3716 96.0764 16.0573 96.5299 18.6858L104.465 15.3144ZM90.9184 27.3714H87.0073V0.857419H90.9184V27.3714Z" fill="#2E3E5C"/>
</svg>
