<svg width="136" height="31" viewBox="0 0 136 31" fill="none" xmlns="http://www.w3.org/2000/svg">
<g clip-path="url(#clip0_97_317)">
<path d="M30.8247 15.8745C30.8247 20.6978 28.5478 24.9896 25.0102 27.7337C22.4725 29.7027 19.2857 30.8745 15.8247 30.8745C12.3637 30.8745 9.17695 29.7027 6.6392 27.7337C3.10166 24.9896 0.824707 20.6978 0.824707 15.8745C0.824707 7.59023 7.54043 0.874512 15.8247 0.874512C24.109 0.874512 30.8247 7.59023 30.8247 15.8745Z" fill="#F2F2F2"/>
<path d="M26.7227 7.87494L25.0102 27.7337C22.4725 29.7027 19.2857 30.8745 15.8247 30.8745C12.3637 30.8745 9.17697 29.7027 6.63922 27.7337L4.92676 7.87494H26.7227Z" fill="#006BC0"/>
<path d="M15.8247 9.74197V30.4817L22.9891 28.4591L24.5873 9.74197H15.8247Z" fill="#0096DC"/>
<path d="M22.1552 17.8542H16.988L22.3874 15.1063L22.6207 12.344H9.02881L9.26664 15.1603H14.7227L9.48771 17.7779L9.73129 20.663H19.0696L18.7635 24.0991L15.8247 24.895L12.7635 24.0378L12.687 21.895H9.83535L10.1921 26.1195L15.8247 27.7113L21.4574 26.1195L22.1553 17.8537L22.1552 17.8542Z" fill="white"/>
<path d="M10.5131 4.81342V2.85422H13.3294V1.79303H9.49268V5.87461H13.3294V4.81342H10.5131Z" fill="#222123"/>
<path d="M14.9771 3.38994V2.9001H17.7782V2.85422V1.79303H13.9414V4.32358H16.6914V4.81342H13.9414V5.87461H17.7782V4.81342V3.38994H14.9771Z" fill="#222123"/>
<path d="M19.355 3.38994V2.9001H22.1561V2.85422V1.79303H18.3193V4.32358H21.0693V4.81342H18.3193V5.87461H22.1561V4.81342V3.38994H19.355Z" fill="#222123"/>
</g>
<path d="M49.6443 10.7065V21.8745H47.4043V17.1225H42.6203V21.8745H40.3803V10.7065H42.6203V15.2985H47.4043V10.7065H49.6443ZM59.649 10.7065V12.5145H56.673V21.8745H54.433V12.5145H51.457V10.7065H59.649ZM73.6594 10.7065V21.8745H71.4194V14.6105L68.4274 21.8745H66.7314L63.7234 14.6105V21.8745H61.4834V10.7065H64.0274L67.5794 19.0105L71.1314 10.7065H73.6594ZM78.314 20.0985H81.994V21.8745H76.074V10.7065H78.314V20.0985ZM96.2223 21.8745L95.0063 20.6745C93.9716 21.6025 92.7076 22.0665 91.2143 22.0665C90.3929 22.0665 89.6676 21.9278 89.0383 21.6505C88.4196 21.3625 87.9396 20.9625 87.5983 20.4505C87.2569 19.9278 87.0863 19.3252 87.0863 18.6425C87.0863 17.9065 87.2943 17.2452 87.7103 16.6585C88.1263 16.0718 88.7396 15.5972 89.5503 15.2345C89.2623 14.8825 89.0543 14.5465 88.9263 14.2265C88.7983 13.8958 88.7343 13.5438 88.7343 13.1705C88.7343 12.6585 88.8676 12.1998 89.1343 11.7945C89.4009 11.3785 89.7796 11.0532 90.2703 10.8185C90.7716 10.5838 91.3529 10.4665 92.0143 10.4665C92.6863 10.4665 93.2623 10.5945 93.7423 10.8505C94.2223 11.1065 94.5796 11.4478 94.8143 11.8745C95.0489 12.3012 95.1503 12.7758 95.1183 13.2985H92.9423C92.9529 12.9465 92.8676 12.6798 92.6863 12.4985C92.5049 12.3065 92.2596 12.2105 91.9503 12.2105C91.6516 12.2105 91.4009 12.3012 91.1983 12.4825C91.0063 12.6532 90.9103 12.8772 90.9103 13.1545C90.9103 13.4212 90.9903 13.6878 91.1503 13.9545C91.3103 14.2105 91.5716 14.5305 91.9343 14.9145L94.7503 17.6985C94.7716 17.6772 94.7876 17.6558 94.7983 17.6345C94.8089 17.6132 94.8196 17.5918 94.8303 17.5705L95.7423 16.0505H98.0783L96.9583 18.0185C96.7449 18.4345 96.5156 18.8292 96.2703 19.2025L98.9743 21.8745H96.2223ZM91.2783 20.2105C92.1529 20.2105 92.9263 19.9012 93.5983 19.2825L90.8463 16.5625C89.8116 17.0212 89.2943 17.6718 89.2943 18.5145C89.2943 18.9945 89.4756 19.3998 89.8383 19.7305C90.2009 20.0505 90.6809 20.2105 91.2783 20.2105ZM103.752 16.2745C103.752 15.1758 103.997 14.1945 104.488 13.3305C104.989 12.4558 105.667 11.7785 106.52 11.2985C107.384 10.8078 108.349 10.5625 109.416 10.5625C110.664 10.5625 111.757 10.8825 112.696 11.5225C113.635 12.1625 114.291 13.0478 114.664 14.1785H112.088C111.832 13.6452 111.469 13.2452 111 12.9785C110.541 12.7118 110.008 12.5785 109.4 12.5785C108.749 12.5785 108.168 12.7332 107.656 13.0425C107.155 13.3412 106.76 13.7678 106.472 14.3225C106.195 14.8772 106.056 15.5278 106.056 16.2745C106.056 17.0105 106.195 17.6612 106.472 18.2265C106.76 18.7812 107.155 19.2132 107.656 19.5225C108.168 19.8212 108.749 19.9705 109.4 19.9705C110.008 19.9705 110.541 19.8372 111 19.5705C111.469 19.2932 111.832 18.8878 112.088 18.3545H114.664C114.291 19.4958 113.635 20.3865 112.696 21.0265C111.768 21.6558 110.675 21.9705 109.416 21.9705C108.349 21.9705 107.384 21.7305 106.52 21.2505C105.667 20.7598 104.989 20.0825 104.488 19.2185C103.997 18.3545 103.752 17.3732 103.752 16.2745ZM120.633 21.9865C119.854 21.9865 119.15 21.8532 118.521 21.5865C117.902 21.3198 117.412 20.9358 117.049 20.4345C116.686 19.9332 116.5 19.3412 116.489 18.6585H118.889C118.921 19.1172 119.081 19.4798 119.369 19.7465C119.668 20.0132 120.073 20.1465 120.585 20.1465C121.108 20.1465 121.518 20.0238 121.817 19.7785C122.116 19.5225 122.265 19.1918 122.265 18.7865C122.265 18.4558 122.164 18.1838 121.961 17.9705C121.758 17.7572 121.502 17.5918 121.193 17.4745C120.894 17.3465 120.478 17.2078 119.945 17.0585C119.22 16.8452 118.628 16.6372 118.169 16.4345C117.721 16.2212 117.332 15.9065 117.001 15.4905C116.681 15.0638 116.521 14.4985 116.521 13.7945C116.521 13.1332 116.686 12.5572 117.017 12.0665C117.348 11.5758 117.812 11.2025 118.409 10.9465C119.006 10.6798 119.689 10.5465 120.457 10.5465C121.609 10.5465 122.542 10.8292 123.257 11.3945C123.982 11.9492 124.382 12.7278 124.457 13.7305H121.993C121.972 13.3465 121.806 13.0318 121.497 12.7865C121.198 12.5305 120.798 12.4025 120.297 12.4025C119.86 12.4025 119.508 12.5145 119.241 12.7385C118.985 12.9625 118.857 13.2878 118.857 13.7145C118.857 14.0132 118.953 14.2638 119.145 14.4665C119.348 14.6585 119.593 14.8185 119.881 14.9465C120.18 15.0638 120.596 15.2025 121.129 15.3625C121.854 15.5758 122.446 15.7892 122.905 16.0025C123.364 16.2158 123.758 16.5358 124.089 16.9625C124.42 17.3892 124.585 17.9492 124.585 18.6425C124.585 19.2398 124.43 19.7945 124.121 20.3065C123.812 20.8185 123.358 21.2292 122.761 21.5385C122.164 21.8372 121.454 21.9865 120.633 21.9865ZM130.583 21.9865C129.804 21.9865 129.1 21.8532 128.471 21.5865C127.852 21.3198 127.362 20.9358 126.999 20.4345C126.636 19.9332 126.45 19.3412 126.439 18.6585H128.839C128.871 19.1172 129.031 19.4798 129.319 19.7465C129.618 20.0132 130.023 20.1465 130.535 20.1465C131.058 20.1465 131.468 20.0238 131.767 19.7785C132.066 19.5225 132.215 19.1918 132.215 18.7865C132.215 18.4558 132.114 18.1838 131.911 17.9705C131.708 17.7572 131.452 17.5918 131.143 17.4745C130.844 17.3465 130.428 17.2078 129.895 17.0585C129.17 16.8452 128.578 16.6372 128.119 16.4345C127.671 16.2212 127.282 15.9065 126.951 15.4905C126.631 15.0638 126.471 14.4985 126.471 13.7945C126.471 13.1332 126.636 12.5572 126.967 12.0665C127.298 11.5758 127.762 11.2025 128.359 10.9465C128.956 10.6798 129.639 10.5465 130.407 10.5465C131.559 10.5465 132.492 10.8292 133.207 11.3945C133.932 11.9492 134.332 12.7278 134.407 13.7305H131.943C131.922 13.3465 131.756 13.0318 131.447 12.7865C131.148 12.5305 130.748 12.4025 130.247 12.4025C129.81 12.4025 129.458 12.5145 129.191 12.7385C128.935 12.9625 128.807 13.2878 128.807 13.7145C128.807 14.0132 128.903 14.2638 129.095 14.4665C129.298 14.6585 129.543 14.8185 129.831 14.9465C130.13 15.0638 130.546 15.2025 131.079 15.3625C131.804 15.5758 132.396 15.7892 132.855 16.0025C133.314 16.2158 133.708 16.5358 134.039 16.9625C134.37 17.3892 134.535 17.9492 134.535 18.6425C134.535 19.2398 134.38 19.7945 134.071 20.3065C133.762 20.8185 133.308 21.2292 132.711 21.5385C132.114 21.8372 131.404 21.9865 130.583 21.9865Z" fill="#006BC0"/>
<defs>
<clipPath id="clip0_97_317">
<rect width="30" height="30" fill="white" transform="translate(0.824707 0.874512)"/>
</clipPath>
</defs>
</svg>
