<svg width="49" height="51" viewBox="0 0 49 51" fill="none" xmlns="http://www.w3.org/2000/svg">
<rect y="0.75" width="49" height="49.5" rx="24.5" fill="#2E2E2F"/>
<path d="M21 17C22.4587 17 23.8576 17.5473 24.8891 18.5214C25.9205 19.4956 26.5 20.8168 26.5 22.1944C26.5 23.4506 26.03 24.6028 25.24 25.5H33.5V34H24.5V26.1989C23.55 26.945 22.33 27.3889 21 27.3889C19.5413 27.3889 18.1424 26.8416 17.1109 25.8675C16.0795 24.8933 15.5 23.5721 15.5 22.1944C15.5 20.8168 16.0795 19.4956 17.1109 18.5214C18.1424 17.5473 19.5413 17 21 17Z" fill="white"/>
</svg>
