<svg width="80" height="31" viewBox="0 0 80 31" fill="none" xmlns="http://www.w3.org/2000/svg">
<g clip-path="url(#clip0_97_308)">
<path d="M30.3247 15.8745C30.3247 21.3933 27.3443 26.2165 22.9043 28.821C22.7849 28.8915 22.6637 28.96 22.5418 29.0268C20.4008 30.2047 17.9414 30.8745 15.3247 30.8745C13.3006 30.8745 11.3708 30.4735 9.60941 29.7468C9.32658 29.6304 9.04797 29.5055 8.77434 29.3721C3.77225 26.9408 0.324707 21.8102 0.324707 15.8745C0.324707 7.59023 7.04043 0.874512 15.3247 0.874512C23.609 0.874512 30.3247 7.59023 30.3247 15.8745Z" fill="#F2F2F2"/>
<path d="M17.2949 1.14435C17.7395 2.84175 17.6182 3.69048 15.2742 5.6304C12.9302 7.57032 12.5664 7.6107 12.5664 8.82312C12.5664 10.0355 14.3649 11.9552 15.2338 12.5009C15.2338 12.5009 15.0923 12.1573 14.769 11.632C14.4457 11.1066 13.4556 10.2175 13.6374 8.86361C13.8192 7.50974 16.6786 5.78198 17.4162 4.47863C18.1537 3.17515 17.982 2.07388 17.2949 1.14435Z" fill="#DE0A17"/>
<path d="M19.8814 5.42825C17.8607 6.09511 15.355 7.14587 15.355 9.18681C15.355 11.2277 16.6482 10.8438 16.6482 11.935C16.6482 13.0262 15.9409 13.3495 15.9409 13.3495C15.9409 13.3495 17.8 12.6422 17.7192 11.2277C17.6384 9.81317 16.527 10.0153 16.527 8.70177C16.527 7.03923 19.8814 5.42825 19.8814 5.42825Z" fill="#DE0A17"/>
<path d="M12.728 12.6625C10.7073 12.6625 9.31299 13.4102 9.31299 13.8345C9.31299 14.2589 11.7985 14.663 14.4861 14.4812C17.1736 14.2993 18.5881 14.077 19.6591 13.4303C19.6591 13.4303 17.7596 13.8749 16.3047 13.8749C14.8497 13.8749 10.6918 14.1349 10.7881 13.5111C10.8845 12.8874 13.2939 12.6625 13.2939 12.6625L12.728 12.6625Z" fill="#DE0A17"/>
<path d="M11.9801 15.0267C10.9091 15.4107 10.6262 15.7946 11.2526 16.1988C11.8791 16.6029 13.1117 16.7241 14.8091 16.7241C16.5065 16.7241 18.8708 16.1381 18.8708 16.1381L18.103 15.5318C18.103 15.5318 17.0521 15.9158 15.0516 15.9158C13.0511 15.9158 11.0405 15.9664 11.9801 15.0267Z" fill="#DE0A17"/>
<path d="M12.4651 17.3102C11.4143 17.6739 11.192 18.1589 12.1215 18.6034C13.0511 19.048 14.8293 19.1288 16.1428 18.9469C17.4562 18.7651 18.5676 18.3609 18.5676 18.3609C18.5676 18.3609 17.8503 18.0881 17.5168 17.7546C17.5168 17.7546 15.9811 18.0779 14.5261 18.0779C13.0712 18.0779 11.8993 17.876 12.4651 17.3102Z" fill="#DE0A17"/>
<path d="M20.3057 12.7837C20.3057 12.7837 20.8109 12.0966 22.084 12.6221C23.3571 13.1474 23.3166 14.562 22.1648 15.4106C21.0129 16.2593 19.6187 16.5423 19.6187 16.5423C19.6187 16.5423 22.2052 15.4106 22.1446 14.0164C22.084 12.6221 20.8917 12.6625 20.3057 12.7837Z" fill="#DE0A17"/>
<path d="M9.95945 20.139C13.9405 20.8664 20.0027 20.1189 21.0733 19.8565C22.1445 19.5934 21.7523 19.0235 21.7523 19.0235C22.0141 19.2084 22.1305 19.4121 22.0233 19.634C21.437 20.8464 15.8598 21.0483 14.223 21.0483C12.5862 21.0483 7.61523 20.9476 7.61523 20.0583C7.61523 19.18 9.96068 18.6367 10.8361 18.8387C9.18953 19.3097 8.2123 19.8195 9.95945 20.139Z" fill="#DE0A17"/>
<path d="M10.4141 21.4375C10.4141 21.4375 11.8235 22.5135 18.8405 21.8921C21.6443 21.6648 22.8112 20.9676 22.9628 20.1947C22.9628 20.1947 21.6746 20.9221 20.0832 21.2253C18.492 21.5285 15.87 21.9983 10.4141 21.4375Z" fill="#DE0A17"/>
<path d="M10.2787 22.9931H9.11361C9.13934 23.9708 9.16506 24.8298 9.16506 25.7225C9.16506 26.4027 9.13934 27.2017 9.13934 28.0007C9.13934 28.5284 9.01875 28.9735 8.77441 29.3721C9.04811 29.5056 9.32666 29.6305 9.60949 29.7468C10.0283 29.2399 10.2664 28.6111 10.253 27.8225C10.2358 27.176 10.2358 26.3433 10.2358 25.7225C10.2358 24.7955 10.253 23.8943 10.2787 22.9931Z" fill="#DE0A17"/>
<path d="M18.1231 24.6425L17.4171 26.7339C17.2898 27.1166 17.1961 27.4821 17.111 27.8476H17.0345C16.9751 27.4736 16.89 27.1337 16.7455 26.7339L16.516 26.0623C16.3457 25.5866 16.2013 25.0845 16.0739 24.6003L14.9009 24.7447L16.5331 28.9784L17.3749 28.8934L18.3692 26.3176C18.5652 25.8162 18.8198 25.2205 19.058 24.6934L18.1231 24.6425Z" fill="#DE0A17"/>
<path d="M21.3984 24.5996C20.9227 24.5996 20.3784 24.7019 19.656 25.1016L19.8427 25.7647L19.9107 25.8069C20.3784 25.4671 20.7954 25.3055 21.118 25.3055C21.5515 25.3055 21.8747 25.5945 21.8747 26.0543V26.4277C20.0129 26.7088 19.5537 27.2867 19.5537 27.9583C19.5537 28.6643 20.0557 29.0463 20.6165 29.0463C21.0843 29.0463 21.492 28.7659 21.8582 28.4598L21.9341 28.4769C22.0101 28.859 22.2623 29.0035 22.5415 29.0267C22.6633 28.96 22.7845 28.8914 22.9039 28.821V25.9263C22.9039 25.0337 22.3682 24.5996 21.3984 24.5996ZM21.8748 27.9413C21.5693 28.2052 21.314 28.3411 21.0844 28.3411C20.7954 28.3411 20.5572 28.1543 20.5572 27.7882C20.5572 27.397 20.8204 27.108 21.8747 26.955V27.9413H21.8748Z" fill="#DE0A17"/>
<path d="M12.9228 24.6003C12.4471 24.6003 11.9028 24.7019 11.1798 25.1017L11.3671 25.7647L11.4351 25.8076C11.9028 25.4671 12.3191 25.3055 12.6424 25.3055C13.0759 25.3055 13.3991 25.5945 13.3991 26.0537V26.4278C11.5373 26.7088 11.0781 27.2868 11.0781 27.9584C11.0781 28.6643 11.5796 29.0463 12.141 29.0463C12.6081 29.0463 13.0165 28.7659 13.382 28.4598L13.4585 28.477C13.5436 28.9105 13.8583 29.0384 14.181 29.0298C14.2605 29.0298 14.3438 29.02 14.4277 29.0023V25.9263C14.4277 25.0337 13.892 24.6003 12.9228 24.6003ZM13.3991 27.9413C13.093 28.2052 12.8377 28.3411 12.6081 28.3411C12.3191 28.3411 12.081 28.1537 12.081 27.7882C12.081 27.397 12.3449 27.108 13.3991 26.955V27.9413Z" fill="#DE0A17"/>
</g>
<path d="M45.9454 10.7065V18.5465C45.9454 19.6345 45.6307 20.4825 45.0014 21.0905C44.3721 21.6878 43.5294 21.9865 42.4734 21.9865C41.4067 21.9865 40.5427 21.6772 39.8814 21.0585C39.2307 20.4398 38.9054 19.5758 38.9054 18.4665H41.1454C41.1561 18.9465 41.2681 19.3198 41.4814 19.5865C41.7054 19.8532 42.0254 19.9865 42.4414 19.9865C42.8467 19.9865 43.1561 19.8585 43.3694 19.6025C43.5827 19.3465 43.6894 18.9945 43.6894 18.5465V10.7065H45.9454ZM48.1824 17.4105C48.1824 16.5145 48.3584 15.7198 48.7104 15.0265C49.0731 14.3332 49.5584 13.7998 50.1664 13.4265C50.7851 13.0532 51.4731 12.8665 52.2304 12.8665C52.8917 12.8665 53.4677 12.9998 53.9584 13.2665C54.4597 13.5332 54.8597 13.8692 55.1584 14.2745V13.0105H57.4144V21.8745H55.1584V20.5785C54.8704 20.9945 54.4704 21.3412 53.9584 21.6185C53.4571 21.8852 52.8757 22.0185 52.2144 22.0185C51.4677 22.0185 50.7851 21.8265 50.1664 21.4425C49.5584 21.0585 49.0731 20.5198 48.7104 19.8265C48.3584 19.1225 48.1824 18.3172 48.1824 17.4105ZM55.1584 17.4425C55.1584 16.8985 55.0517 16.4345 54.8384 16.0505C54.6251 15.6558 54.3371 15.3572 53.9744 15.1545C53.6117 14.9412 53.2224 14.8345 52.8064 14.8345C52.3904 14.8345 52.0064 14.9358 51.6544 15.1385C51.3024 15.3412 51.0144 15.6398 50.7904 16.0345C50.5771 16.4185 50.4704 16.8772 50.4704 17.4105C50.4704 17.9438 50.5771 18.4132 50.7904 18.8185C51.0144 19.2132 51.3024 19.5172 51.6544 19.7305C52.0171 19.9438 52.4011 20.0505 52.8064 20.0505C53.2224 20.0505 53.6117 19.9492 53.9744 19.7465C54.3371 19.5332 54.6251 19.2345 54.8384 18.8505C55.0517 18.4558 55.1584 17.9865 55.1584 17.4425ZM63.4981 19.8105L65.7381 13.0105H68.1221L64.8421 21.8745H62.1221L58.8581 13.0105H61.2581L63.4981 19.8105ZM69.0043 17.4105C69.0043 16.5145 69.1803 15.7198 69.5323 15.0265C69.8949 14.3332 70.3803 13.7998 70.9883 13.4265C71.6069 13.0532 72.2949 12.8665 73.0523 12.8665C73.7136 12.8665 74.2896 12.9998 74.7803 13.2665C75.2816 13.5332 75.6816 13.8692 75.9803 14.2745V13.0105H78.2363V21.8745H75.9803V20.5785C75.6923 20.9945 75.2923 21.3412 74.7803 21.6185C74.2789 21.8852 73.6976 22.0185 73.0363 22.0185C72.2896 22.0185 71.6069 21.8265 70.9883 21.4425C70.3803 21.0585 69.8949 20.5198 69.5323 19.8265C69.1803 19.1225 69.0043 18.3172 69.0043 17.4105ZM75.9803 17.4425C75.9803 16.8985 75.8736 16.4345 75.6603 16.0505C75.4469 15.6558 75.1589 15.3572 74.7963 15.1545C74.4336 14.9412 74.0443 14.8345 73.6283 14.8345C73.2123 14.8345 72.8283 14.9358 72.4763 15.1385C72.1243 15.3412 71.8363 15.6398 71.6123 16.0345C71.3989 16.4185 71.2923 16.8772 71.2923 17.4105C71.2923 17.9438 71.3989 18.4132 71.6123 18.8185C71.8363 19.2132 72.1243 19.5172 72.4763 19.7305C72.8389 19.9438 73.2229 20.0505 73.6283 20.0505C74.0443 20.0505 74.4336 19.9492 74.7963 19.7465C75.1589 19.5332 75.4469 19.2345 75.6603 18.8505C75.8736 18.4558 75.9803 17.9865 75.9803 17.4425Z" fill="#DE0A17"/>
<defs>
<clipPath id="clip0_97_308">
<rect width="30" height="30" fill="white" transform="translate(0.324707 0.874512)"/>
</clipPath>
</defs>
</svg>
