<svg width="121" height="119" viewBox="0 0 121 119" fill="none" xmlns="http://www.w3.org/2000/svg">
<path d="M50.5 83.75H31.55C14.7 83.75 10.5 79.55 10.5 62.7V32.7C10.5 15.85 14.7 11.65 31.55 11.65H84.2C101.05 11.65 105.25 15.85 105.25 32.7" stroke="#6CBF8B" stroke-width="6.5" stroke-linecap="round" stroke-linejoin="round"/>
<path d="M50.5 106.35V83.75" stroke="#6CBF8B" stroke-width="3.5" stroke-linecap="round" stroke-linejoin="round"/>
<path d="M10.5 63.75H50.5" stroke="#6CBF8B" stroke-width="6.5" stroke-linecap="round" stroke-linejoin="round"/>
<path d="M34.2002 106.35H50.5002" stroke="#6CBF8B" stroke-width="6.5" stroke-linecap="round" stroke-linejoin="round"/>
<path d="M110.5 63V91.55C110.5 103.4 107.55 106.35 95.6999 106.35H77.9499C66.0999 106.35 63.1499 103.4 63.1499 91.55V63C63.1499 51.15 66.0999 48.2 77.9499 48.2H95.6999C107.55 48.2 110.5 51.15 110.5 63Z" stroke="#6CBF8B" stroke-width="6.5" stroke-linecap="round" stroke-linejoin="round"/>
<path d="M86.7225 90.25H86.7674" stroke="#6CBF8B" stroke-width="2" stroke-linecap="round" stroke-linejoin="round"/>
</svg>
