<svg width="71" height="31" viewBox="0 0 71 31" fill="none" xmlns="http://www.w3.org/2000/svg">
<g clip-path="url(#clip0_97_324)">
<path d="M30.8247 15.8745C30.8247 16.7818 30.7439 17.6702 30.5896 18.5329C29.3351 25.5492 23.2017 30.8745 15.8247 30.8745C10.2667 30.8745 5.41471 27.8518 2.82369 23.3605C2.19123 22.2652 1.69412 21.0829 1.35369 19.8357C1.0084 18.5739 0.824707 17.2453 0.824707 15.8745C0.824707 7.59023 7.54043 0.874512 15.8247 0.874512C22.6622 0.874512 28.4308 5.44922 30.2375 11.7051C30.6196 13.0288 30.8247 14.4278 30.8247 15.8745Z" fill="#8F9ED1"/>
<path d="M8.45186 11.3182H2.92758L1.35352 19.8357C1.69395 21.0829 2.19105 22.2652 2.82352 23.3605H3.33598L3.94576 20.0617H6.98127C10.6774 20.0617 11.6711 16.7433 11.9092 15.1135C12.148 13.4843 10.956 11.3182 8.45186 11.3182ZM9.2533 15.3884C9.11801 16.3123 8.43533 18.1937 6.34025 18.1937H4.29105L5.20699 13.2363H7.29293C9.32619 13.2363 9.38859 14.4645 9.2533 15.3884Z" fill="#F2F2F2"/>
<path d="M30.2375 11.7051C29.7679 11.4626 29.2083 11.3181 28.5618 11.3181H23.0375L20.812 23.3605H23.4459L24.0556 20.0617H27.0912C28.7351 20.0617 29.8444 19.4054 30.5895 18.5329C30.7439 17.6702 30.8247 16.7818 30.8247 15.8745C30.8247 14.4278 30.6196 13.0288 30.2375 11.7051ZM29.3632 15.3884C29.228 16.3123 28.5453 18.1937 26.4496 18.1937H24.401L25.3169 13.2363H27.4029C29.4361 13.2363 29.4985 14.4645 29.3632 15.3884Z" fill="#F2F2F2"/>
<path d="M18.9437 11.3581C17.8718 11.3581 16.4415 11.3581 15.7447 11.3581L16.3452 8.10898H13.7221L11.4966 20.1509H14.1196L15.3995 13.226C15.8723 13.226 16.5004 13.226 17.0758 13.226C18.1886 13.226 18.9437 13.4644 18.7847 14.4977C18.6257 15.531 17.7117 20.1014 17.7117 20.1014H20.3744C20.3744 20.1014 21.4077 15.0144 21.5667 13.5836C21.7257 12.1529 20.4142 11.3581 18.9437 11.3581Z" fill="#F2F2F2"/>
</g>
<path d="M48.404 14.1625C48.404 14.7598 48.26 15.3198 47.972 15.8425C47.6946 16.3652 47.252 16.7865 46.644 17.1065C46.0466 17.4265 45.2893 17.5865 44.372 17.5865H42.5V21.8745H40.26V10.7065H44.372C45.236 10.7065 45.972 10.8558 46.58 11.1545C47.188 11.4532 47.6413 11.8638 47.94 12.3865C48.2493 12.9092 48.404 13.5012 48.404 14.1625ZM44.276 15.7785C44.8946 15.7785 45.3533 15.6398 45.652 15.3625C45.9506 15.0745 46.1 14.6745 46.1 14.1625C46.1 13.0745 45.492 12.5305 44.276 12.5305H42.5V15.7785H44.276ZM59.4583 10.7065V21.8745H57.2183V17.1225H52.4343V21.8745H50.1943V10.7065H52.4343V15.2985H57.2183V10.7065H59.4583ZM70.0071 14.1625C70.0071 14.7598 69.8631 15.3198 69.5751 15.8425C69.2977 16.3652 68.8551 16.7865 68.2471 17.1065C67.6497 17.4265 66.8924 17.5865 65.9751 17.5865H64.1031V21.8745H61.8631V10.7065H65.9751C66.8391 10.7065 67.5751 10.8558 68.1831 11.1545C68.7911 11.4532 69.2444 11.8638 69.5431 12.3865C69.8524 12.9092 70.0071 13.5012 70.0071 14.1625ZM65.8791 15.7785C66.4977 15.7785 66.9564 15.6398 67.2551 15.3625C67.5537 15.0745 67.7031 14.6745 67.7031 14.1625C67.7031 13.0745 67.0951 12.5305 65.8791 12.5305H64.1031V15.7785H65.8791Z" fill="#8F9ED1"/>
<defs>
<clipPath id="clip0_97_324">
<rect width="30" height="30" fill="white" transform="translate(0.824707 0.874512)"/>
</clipPath>
</defs>
</svg>
