<svg width="124" height="124" viewBox="0 0 124 124" fill="none" xmlns="http://www.w3.org/2000/svg">
<path d="M11.625 11.625H42.625V3.875H3.875V42.625H11.625V11.625Z" fill="black"/>
<path d="M42.625 42.625V19.375H19.375V42.625H42.625ZM27.125 27.125H34.875V34.875H27.125V27.125Z" fill="black"/>
<path d="M79.4375 11.625H112.375V42.625H120.125V3.875H79.4375V11.625Z" fill="black"/>
<path d="M104.625 42.625V19.375H81.375V42.625H104.625ZM89.125 27.125H96.875V34.875H89.125V27.125Z" fill="black"/>
<path d="M42.625 112.375H11.625V81.375H3.875V120.125H42.625V112.375Z" fill="black"/>
<path d="M42.625 81.375H19.375V104.625H42.625V81.375ZM34.875 96.875H27.125V89.125H34.875V96.875Z" fill="black"/>
<path d="M112.375 112.375H79.4375V120.125H120.125V81.375H112.375V112.375Z" fill="black"/>
<path d="M65.875 73.625H96.875V89.125H104.625V65.875H65.875V73.625Z" fill="black"/>
<path d="M104.625 104.625V96.875H58.125V65.875H19.375V73.625H50.375V104.625H104.625Z" fill="black"/>
<path d="M50.375 19.375H58.125V42.625H50.375V19.375Z" fill="black"/>
<path d="M19.375 58.125H73.625V19.375H65.875V50.375H19.375V58.125Z" fill="black"/>
<path d="M81.375 50.375H104.625V58.125H81.375V50.375Z" fill="black"/>
<path d="M81.375 81.375H89.125V89.125H81.375V81.375Z" fill="black"/>
<path d="M65.875 81.375H73.625V89.125H65.875V81.375Z" fill="black"/>
</svg>
