<svg width="126" height="36" viewBox="0 0 126 36" fill="none" xmlns="http://www.w3.org/2000/svg">
<path fill-rule="evenodd" clip-rule="evenodd" d="M26.7024 6.61996C26.8287 6.61992 27.018 6.68297 27.018 6.87211C27.0812 7.06125 30.8687 32.7845 30.8687 32.7846L30.8586 32.7867L19.9479 35.1173L19.9515 35.0432L0 31.3345C0 31.3345 2.52505 11.4116 2.6513 10.7811C2.77469 9.85683 2.83778 9.83586 3.72447 9.54113L3.78758 9.52014C3.91383 9.52014 5.17635 9.14185 6.94389 8.57443C7.63828 5.67426 9.78457 0 14.3297 0C14.8978 0 15.5922 0.378281 16.1603 1.0718H16.2866C18.2435 1.0718 19.3166 2.71104 19.9479 4.53941C20.5792 4.35027 21.021 4.22417 21.021 4.22417C21.0411 4.22417 21.0691 4.22258 21.1028 4.22066L21.1032 4.22064C21.1967 4.21532 21.3339 4.20751 21.4662 4.22414C21.5711 4.22504 21.6756 4.26904 21.7435 4.3201C21.756 4.32936 21.7677 4.3394 21.7786 4.35027L23.8617 6.43082L23.8972 6.4333L23.898 6.43334C24.2203 6.45573 26.5848 6.61992 26.7024 6.61996ZM17.8334 5.23485L17.8331 5.23492C17.6205 5.29301 17.3996 5.35339 17.1703 5.42208V5.0438C17.1703 3.90894 16.981 3.02628 16.7285 2.33276C17.8016 2.39581 18.496 3.59371 18.8747 4.9177C18.5534 5.03807 18.2064 5.1329 17.8339 5.23469L17.8337 5.23476L17.8334 5.23485ZM16.0341 5.61123C16.0341 4.28724 15.8447 3.27848 15.5922 2.58496C14.4559 3.02629 13.1934 4.28724 12.5621 6.87218C13.7615 6.49389 14.9609 6.11561 16.0341 5.80037V5.61123ZM14.2034 1.32397C14.3928 1.32397 14.5822 1.38702 14.7715 1.51311C13.3196 2.20663 11.7415 3.90891 11.1102 7.37651C10.3712 7.62254 9.63224 7.83015 8.92325 8.02934L8.9232 8.02937C8.72376 8.0854 8.52669 8.14076 8.33267 8.19613C9.15331 5.54814 10.984 1.32397 14.2034 1.32397ZM16.3497 12.6094L15.024 16.5814C15.024 16.5814 13.8246 15.9509 12.4359 15.9509C10.3527 15.9509 10.2265 17.2749 10.2265 17.5902C10.2265 18.3157 10.972 18.8625 11.8714 19.5222C13.2384 20.5249 14.9609 21.7883 14.9609 24.3362C14.9609 27.6777 12.8146 29.8213 9.97395 29.8213C6.56513 29.8213 4.7976 27.6777 4.7976 27.6777L5.68136 24.6515C5.68136 24.6515 7.51202 26.2276 9.02705 26.2276C10.0371 26.2276 10.4158 25.4711 10.4158 24.8406C10.4158 23.7886 9.66118 23.1863 8.81462 22.5108C7.73328 21.6479 6.502 20.6653 6.502 18.4728C6.502 15.1944 8.83768 12.042 13.6353 12.042C15.4659 12.042 16.3497 12.6094 16.3497 12.6094ZM108.261 14.0595H111.228L110.66 17.1488H107.693L105.421 29.0648H101.128L103.401 17.2119H101.381L102.012 13.9965H104.032L104.158 13.303C104.474 11.5376 105.168 9.77232 106.62 8.51137C107.756 7.50261 109.271 7.06128 110.786 7.06128C112.364 7.06128 113.122 7.43956 113.122 7.43956L112.301 10.7811C112.301 10.7811 111.67 10.5919 110.913 10.5919C109.524 10.5919 108.64 11.9159 108.388 13.366L108.261 14.0595ZM58.8334 13.7444C56.9396 13.7444 55.4877 14.627 54.2883 16.0141H54.2252L55.8665 7.37659H51.5739L47.4076 29.1909H51.7002L53.1521 21.7514C53.7202 18.9142 55.1721 17.212 56.4978 17.212C57.4446 17.212 57.8234 17.8424 57.8234 18.7881C57.8234 19.3556 57.7603 20.1121 57.634 20.6796L55.9927 29.1909H60.3485L62.0529 20.3643C62.2422 19.4186 62.3685 18.3468 62.3685 17.5902C62.3054 15.1945 61.0428 13.7444 58.8334 13.7444ZM43.5569 20.049C42.4837 19.4816 41.9156 18.9772 41.9156 18.2837C41.9156 17.4011 42.6731 16.8336 43.9356 16.8336C45.3244 16.8336 46.5869 17.4011 46.5869 17.4011L47.597 14.3748C47.597 14.3748 46.7132 13.6813 43.9988 13.6813C40.2743 13.6813 37.6861 15.8249 37.6861 18.7881C37.6861 20.4904 38.8855 21.8144 40.5268 22.697C41.8525 23.4536 42.2943 23.958 42.2943 24.7145C42.2943 25.5342 41.6631 26.1646 40.4006 26.1646C38.5699 26.1646 36.9286 25.2189 36.9286 25.2189L35.8555 28.2452C35.8555 28.2452 37.4336 29.317 40.0849 29.317C43.9356 29.317 46.6501 27.4256 46.6501 24.021C46.5869 22.3188 45.1982 21.0578 43.5569 20.049ZM63.4416 23.5167C63.4416 18.4099 66.8505 13.7444 71.9637 13.7444C75.9406 13.7444 77.7713 16.5815 77.7713 19.7339C77.7713 24.9668 74.3625 29.5062 69.3124 29.5062C65.4617 29.5062 63.4416 26.8582 63.4416 23.5167ZM69.8805 26.1646C68.4286 26.1646 67.7973 24.9037 67.7973 23.3905C67.7973 20.9317 69.0599 16.9597 71.3956 16.9597C72.9106 16.9597 73.4156 18.2837 73.4156 19.5447C73.3525 22.1296 72.0899 26.1646 69.8805 26.1646ZM84.147 16.2663C84.147 16.2663 85.7883 13.7444 88.6921 13.7444C91.7853 13.7444 93.0479 16.2663 93.0479 19.1665C93.0479 24.3994 89.7653 29.5062 84.7783 29.5062C83.137 29.5062 82.2533 28.9388 82.2533 28.9388H82.1901L80.9907 35.2435H76.7613L79.6651 19.6708C80.0438 17.9055 80.3595 15.5728 80.5489 13.9966H84.3364L84.0839 16.2663H84.147ZM84.5889 26.1647C83.4527 26.1647 82.8214 25.5342 82.8214 25.5342L83.5158 21.5622C84.0208 18.9143 85.4096 17.1489 86.8615 17.1489C88.1871 17.1489 88.5659 18.3468 88.5659 19.4817C88.629 22.3188 86.9877 26.1647 84.5889 26.1647ZM96.7092 10.0245C96.7092 8.63747 97.7823 7.56567 99.1711 7.56567C100.434 7.56567 101.317 8.51138 101.317 9.70928C101.254 11.2855 100.118 12.1681 98.7923 12.1681H98.7292C97.5298 12.1681 96.7092 11.2855 96.7092 10.0245ZM93.1741 29.0648H97.4667L100.37 13.9335H96.0779L93.1741 29.0648ZM121.455 14.0596C121.455 14.0596 118.803 20.8056 117.604 24.4624H117.541C117.478 23.2645 116.468 14.0596 116.468 14.0596H111.986L114.574 27.93C114.637 28.2452 114.574 28.4343 114.511 28.6235C114.006 29.5692 113.185 30.5149 112.175 31.2084C111.354 31.7759 110.471 32.1541 109.776 32.4063L110.976 36C111.859 35.8109 113.627 35.1174 115.142 33.6673C117.099 31.8389 118.866 29.0018 120.76 25.2189L126 14.0596H121.455Z" fill="#2E3E5C"/>
</svg>
