<svg width="95" height="31" viewBox="0 0 95 31" fill="none" xmlns="http://www.w3.org/2000/svg">
<path d="M5.625 12.1509V3.71344L15 1.95282L24.375 3.71344V12.1509H5.625Z" fill="#FFD54F"/>
<path d="M5.625 12.1509L15 1.95282L24.375 12.1509H5.625Z" fill="#FFECB3"/>
<path d="M0 12.1509L15 29.9634L30 12.1509H0Z" fill="#FFA000"/>
<path d="M5.625 12.1509L15 29.9634L24.375 12.1509H5.625Z" fill="#FFCA28"/>
<path d="M0 12.1509L5.625 3.71344V12.1509H0Z" fill="#FFC107"/>
<path d="M24.375 3.71344V12.1509H30L24.375 3.71344Z" fill="#FFC107"/>
<path d="M43.2725 22.0701C42.4938 22.0701 41.7898 21.9368 41.1605 21.6701C40.5418 21.4035 40.0512 21.0195 39.6885 20.5181C39.3258 20.0168 39.1392 19.4248 39.1285 18.7421H41.5285C41.5605 19.2008 41.7205 19.5635 42.0085 19.8301C42.3072 20.0968 42.7125 20.2301 43.2245 20.2301C43.7472 20.2301 44.1578 20.1075 44.4565 19.8621C44.7552 19.6061 44.9045 19.2755 44.9045 18.8701C44.9045 18.5395 44.8032 18.2675 44.6005 18.0541C44.3978 17.8408 44.1418 17.6755 43.8325 17.5581C43.5338 17.4301 43.1178 17.2915 42.5845 17.1421C41.8592 16.9288 41.2672 16.7208 40.8085 16.5181C40.3605 16.3048 39.9712 15.9901 39.6405 15.5741C39.3205 15.1475 39.1605 14.5821 39.1605 13.8781C39.1605 13.2168 39.3258 12.6408 39.6565 12.1501C39.9872 11.6595 40.4512 11.2861 41.0485 11.0301C41.6458 10.7635 42.3285 10.6301 43.0965 10.6301C44.2485 10.6301 45.1818 10.9128 45.8965 11.4781C46.6218 12.0328 47.0218 12.8115 47.0965 13.8141H44.6325C44.6112 13.4301 44.4458 13.1155 44.1365 12.8701C43.8378 12.6141 43.4378 12.4861 42.9365 12.4861C42.4992 12.4861 42.1472 12.5981 41.8805 12.8221C41.6245 13.0461 41.4965 13.3715 41.4965 13.7981C41.4965 14.0968 41.5925 14.3475 41.7845 14.5501C41.9872 14.7421 42.2325 14.9021 42.5205 15.0301C42.8192 15.1475 43.2352 15.2861 43.7685 15.4461C44.4938 15.6595 45.0858 15.8728 45.5445 16.0861C46.0032 16.2995 46.3978 16.6195 46.7285 17.0461C47.0592 17.4728 47.2245 18.0328 47.2245 18.7261C47.2245 19.3235 47.0698 19.8781 46.7605 20.3901C46.4512 20.9021 45.9978 21.3128 45.4005 21.6221C44.8032 21.9208 44.0938 22.0701 43.2725 22.0701ZM54.6145 21.9581L51.6065 18.1821V21.9581H49.3665V10.1181H51.6065V16.8541L54.5825 13.0941H57.4945L53.5905 17.5421L57.5265 21.9581H54.6145ZM67.1503 17.3341C67.1503 17.6541 67.1289 17.9421 67.0863 18.1981H60.6062C60.6596 18.8381 60.8836 19.3395 61.2782 19.7021C61.6729 20.0648 62.1582 20.2461 62.7343 20.2461C63.5662 20.2461 64.1582 19.8888 64.5103 19.1741H66.9263C66.6702 20.0275 66.1796 20.7315 65.4542 21.2861C64.7289 21.8301 63.8383 22.1021 62.7822 22.1021C61.9289 22.1021 61.1609 21.9155 60.4782 21.5421C59.8062 21.1581 59.2782 20.6195 58.8942 19.9261C58.5209 19.2328 58.3342 18.4328 58.3342 17.5261C58.3342 16.6088 58.5209 15.8035 58.8942 15.1101C59.2676 14.4168 59.7902 13.8835 60.4622 13.5101C61.1342 13.1368 61.9076 12.9501 62.7822 12.9501C63.6249 12.9501 64.3769 13.1315 65.0382 13.4941C65.7103 13.8568 66.2276 14.3741 66.5903 15.0461C66.9636 15.7075 67.1503 16.4701 67.1503 17.3341ZM64.8302 16.6941C64.8196 16.1181 64.6116 15.6595 64.2062 15.3181C63.8009 14.9661 63.3049 14.7901 62.7182 14.7901C62.1636 14.7901 61.6942 14.9608 61.3102 15.3021C60.9369 15.6328 60.7076 16.0968 60.6222 16.6941H64.8302ZM71.5933 14.9341V19.2221C71.5933 19.5208 71.6626 19.7395 71.8013 19.8781C71.9506 20.0061 72.1959 20.0701 72.5373 20.0701H73.5773V21.9581H72.1693C70.2813 21.9581 69.3373 21.0408 69.3373 19.2061V14.9341H68.2813V13.0941H69.3373V10.9021H71.5933V13.0941H73.5773V14.9341H71.5933ZM74.8124 17.5261C74.8124 16.6088 74.999 15.8088 75.3724 15.1261C75.7457 14.4328 76.263 13.8995 76.9244 13.5261C77.5857 13.1421 78.343 12.9501 79.1964 12.9501C80.295 12.9501 81.2017 13.2275 81.9164 13.7821C82.6417 14.3261 83.127 15.0941 83.3724 16.0861H80.9564C80.8284 15.7021 80.6097 15.4035 80.3004 15.1901C80.0017 14.9661 79.6284 14.8541 79.1804 14.8541C78.5404 14.8541 78.0337 15.0888 77.6604 15.5581C77.287 16.0168 77.1004 16.6728 77.1004 17.5261C77.1004 18.3688 77.287 19.0248 77.6604 19.4941C78.0337 19.9528 78.5404 20.1821 79.1804 20.1821C80.087 20.1821 80.679 19.7768 80.9564 18.9661H83.3724C83.127 19.9261 82.6417 20.6888 81.9164 21.2541C81.191 21.8195 80.2844 22.1021 79.1964 22.1021C78.343 22.1021 77.5857 21.9155 76.9244 21.5421C76.263 21.1581 75.7457 20.6248 75.3724 19.9421C74.999 19.2488 74.8124 18.4435 74.8124 17.5261ZM90.2054 12.9661C90.8774 12.9661 91.4747 13.1155 91.9974 13.4141C92.52 13.7021 92.9254 14.1341 93.2134 14.7101C93.512 15.2755 93.6614 15.9581 93.6614 16.7581V21.9581H91.4214V17.0621C91.4214 16.3581 91.2454 15.8195 90.8934 15.4461C90.5414 15.0621 90.0614 14.8701 89.4534 14.8701C88.8347 14.8701 88.344 15.0621 87.9814 15.4461C87.6294 15.8195 87.4534 16.3581 87.4534 17.0621V21.9581H85.2134V10.1181H87.4534V14.1981C87.7414 13.8141 88.1254 13.5155 88.6054 13.3021C89.0854 13.0781 89.6187 12.9661 90.2054 12.9661Z" fill="#FFA000"/>
</svg>
