<svg width="79" height="31" viewBox="0 0 79 31" fill="none" xmlns="http://www.w3.org/2000/svg">
<g clip-path="url(#clip0_97_266)">
<path d="M20.773 0.790771C20.8428 0.790771 20.9127 0.790771 20.9864 0.790771C21.1577 2.90643 20.3502 4.48725 19.3687 5.63203C18.4057 6.7689 17.0871 7.87152 14.9543 7.70422C14.812 5.61886 15.6209 4.15528 16.601 3.01314C17.5099 1.94872 19.1764 1.00155 20.773 0.790771Z" fill="black"/>
<path d="M27.2294 22.8116C27.2294 22.8327 27.2294 22.8511 27.2294 22.8709C26.63 24.6862 25.775 26.242 24.7317 27.6858C23.7793 28.9965 22.6121 30.7605 20.528 30.7605C18.7272 30.7605 17.5311 29.6025 15.6855 29.5709C13.7331 29.5393 12.6595 30.5392 10.8745 30.7908C10.6703 30.7908 10.4661 30.7908 10.2659 30.7908C8.95512 30.6011 7.89729 29.563 7.12664 28.6277C4.85421 25.8639 3.09819 22.2939 2.77148 17.7253C2.77148 17.2774 2.77148 16.8308 2.77148 16.3829C2.90981 13.1133 4.49853 10.4548 6.61024 9.16648C7.72472 8.48146 9.25679 7.89787 10.9628 8.15871C11.6939 8.272 12.4408 8.5223 13.0956 8.76996C13.716 9.0084 14.4919 9.43127 15.227 9.40887C15.725 9.39438 16.2203 9.13486 16.7222 8.95175C18.1924 8.42086 19.6336 7.81224 21.5332 8.09811C23.8161 8.44326 25.4365 9.45761 26.4377 11.0226C24.5064 12.2517 22.9796 14.1039 23.2405 17.2669C23.4723 20.14 25.1427 21.8209 27.2294 22.8116Z" fill="black"/>
</g>
<path d="M43.3491 21.9028C42.5704 21.9028 41.8664 21.7694 41.2371 21.5028C40.6184 21.2361 40.1277 20.8521 39.7651 20.3508C39.4024 19.8494 39.2157 19.2574 39.2051 18.5748H41.6051C41.6371 19.0334 41.7971 19.3961 42.0851 19.6628C42.3837 19.9294 42.7891 20.0628 43.3011 20.0628C43.8237 20.0628 44.2344 19.9401 44.5331 19.6948C44.8317 19.4388 44.9811 19.1081 44.9811 18.7028C44.9811 18.3721 44.8797 18.1001 44.6771 17.8868C44.4744 17.6734 44.2184 17.5081 43.9091 17.3908C43.6104 17.2628 43.1944 17.1241 42.6611 16.9748C41.9357 16.7614 41.3437 16.5534 40.8851 16.3508C40.4371 16.1374 40.0477 15.8228 39.7171 15.4068C39.3971 14.9801 39.2371 14.4148 39.2371 13.7108C39.2371 13.0494 39.4024 12.4734 39.7331 11.9828C40.0637 11.4921 40.5277 11.1188 41.1251 10.8628C41.7224 10.5961 42.4051 10.4628 43.1731 10.4628C44.3251 10.4628 45.2584 10.7454 45.9731 11.3108C46.6984 11.8654 47.0984 12.6441 47.1731 13.6468H44.7091C44.6877 13.2628 44.5224 12.9481 44.2131 12.7028C43.9144 12.4468 43.5144 12.3188 43.0131 12.3188C42.5757 12.3188 42.2237 12.4308 41.9571 12.6548C41.7011 12.8788 41.5731 13.2041 41.5731 13.6308C41.5731 13.9294 41.6691 14.1801 41.8611 14.3828C42.0637 14.5748 42.3091 14.7348 42.5971 14.8628C42.8957 14.9801 43.3117 15.1188 43.8451 15.2788C44.5704 15.4921 45.1624 15.7054 45.6211 15.9188C46.0797 16.1321 46.4744 16.4521 46.8051 16.8788C47.1357 17.3054 47.3011 17.8654 47.3011 18.5588C47.3011 19.1561 47.1464 19.7108 46.8371 20.2228C46.5277 20.7348 46.0744 21.1454 45.4771 21.4548C44.8797 21.7534 44.1704 21.9028 43.3491 21.9028ZM61.7311 12.9268L59.1391 21.7908H56.7231L55.1071 15.5988L53.4911 21.7908H51.0591L48.4511 12.9268H50.7231L52.2911 19.6788L53.9871 12.9268H56.3551L58.0191 19.6628L59.5871 12.9268H61.7311ZM64.2791 11.8708C63.8844 11.8708 63.5537 11.7481 63.2871 11.5028C63.0311 11.2468 62.9031 10.9321 62.9031 10.5588C62.9031 10.1854 63.0311 9.8761 63.2871 9.63077C63.5537 9.37477 63.8844 9.24677 64.2791 9.24677C64.6737 9.24677 64.9991 9.37477 65.2551 9.63077C65.5217 9.8761 65.6551 10.1854 65.6551 10.5588C65.6551 10.9321 65.5217 11.2468 65.2551 11.5028C64.9991 11.7481 64.6737 11.8708 64.2791 11.8708ZM65.3831 12.9268V21.7908H63.1431V12.9268H65.3831ZM71.8602 14.7668H70.3082V21.7908H68.0362V14.7668H67.0282V12.9268H68.0362V12.4788C68.0362 11.3908 68.3455 10.5908 68.9642 10.0788C69.5829 9.56677 70.5162 9.32677 71.7642 9.35877V11.2468C71.2202 11.2361 70.8415 11.3268 70.6282 11.5188C70.4149 11.7108 70.3082 12.0574 70.3082 12.5588V12.9268H71.8602V14.7668ZM76.1198 14.7668V19.0548C76.1198 19.3534 76.1891 19.5721 76.3278 19.7108C76.4771 19.8388 76.7225 19.9028 77.0638 19.9028H78.1038V21.7908H76.6958C74.8078 21.7908 73.8638 20.8734 73.8638 19.0388V14.7668H72.8078V12.9268H73.8638V10.7348H76.1198V12.9268H78.1038V14.7668H76.1198Z" fill="black"/>
<defs>
<clipPath id="clip0_97_266">
<rect width="30" height="30" fill="white" transform="translate(0 0.790771)"/>
</clipPath>
</defs>
</svg>
