<svg width="61" height="31" viewBox="0 0 61 31" fill="none" xmlns="http://www.w3.org/2000/svg">
<path d="M24.1406 2.36438H5.85938C3.1411 2.36438 0.9375 4.56798 0.9375 7.28625V24.63C0.9375 27.3483 3.1411 29.5519 5.85938 29.5519H24.1406C26.8589 29.5519 29.0625 27.3483 29.0625 24.63V7.28625C29.0625 4.56798 26.8589 2.36438 24.1406 2.36438Z" fill="#470137"/>
<path d="M15.395 10.0566L11.9356 16.0003L15.6634 22.3284C15.7395 22.4573 15.7067 22.5206 15.5673 22.5206H13.2423C13.1847 22.5267 13.1266 22.5153 13.0756 22.4879C13.0247 22.4605 12.9831 22.4185 12.9563 22.3671L10.3325 17.5542H10.3126L7.7579 22.3671C7.73441 22.4129 7.69885 22.4514 7.65506 22.4785C7.61128 22.5055 7.56093 22.5201 7.50946 22.5206H5.27352C5.14579 22.5206 5.12118 22.4573 5.19735 22.3284L8.86297 16.1738L5.37079 10.0179C5.29462 9.91594 5.3204 9.86438 5.44696 9.86438H7.77665C7.8266 9.8608 7.87653 9.87159 7.92055 9.89547C7.96457 9.91935 8.00084 9.95532 8.02508 9.99914L10.486 14.7546H10.5048L12.9528 9.99914C12.977 9.95551 13.0131 9.91966 13.0569 9.8958C13.1006 9.87193 13.1503 9.86103 13.2001 9.86438H15.3188C15.4595 9.86438 15.4841 9.92883 15.395 10.0566Z" fill="#FF61F6"/>
<path d="M21.0785 22.755C19.7191 22.755 18.6727 22.3694 17.8605 21.5995C17.0484 20.8296 16.6406 19.6917 16.6406 18.1847C16.6406 16.8151 17.0773 15.6901 17.9508 14.8097C18.3977 14.3471 18.9351 13.9814 19.5294 13.7355C20.1238 13.4895 20.7624 13.3685 21.4055 13.38C21.6933 13.3749 21.9807 13.4056 22.2609 13.4714V9.50576C22.2588 9.49091 22.2602 9.47576 22.2649 9.46151C22.2696 9.44727 22.2775 9.4343 22.2881 9.42363C22.2986 9.41296 22.3115 9.40488 22.3257 9.40002C22.3399 9.39516 22.355 9.39365 22.3699 9.39561H24.5121C24.5719 9.39561 24.6023 9.43194 24.6023 9.50576V20.6093C24.6023 21.078 24.8051 21.4776 24.8367 21.8198C24.8432 21.8537 24.8376 21.8888 24.8209 21.919C24.8042 21.9491 24.7774 21.9725 24.7453 21.9851C23.6941 22.4983 22.316 22.755 21.0785 22.755ZM22.2656 20.9397V15.2714C22.1895 15.1378 21.7863 15.0206 21.3738 15.0206C21.0324 15.0118 20.6933 15.0792 20.3813 15.2181C20.0693 15.357 19.7922 15.5638 19.5703 15.8233C19.0298 16.4564 18.7382 17.2645 18.75 18.0968C18.75 19.1233 19.1016 19.8265 19.5598 20.3151C19.7763 20.5635 20.0431 20.7631 20.3425 20.9009C20.6418 21.0387 20.967 21.1114 21.2965 21.1144C21.7336 21.1144 22.1613 21.0487 22.2656 20.9397Z" fill="#FF61F6"/>
<path d="M46.2857 21.9581L43.8698 18.1981L41.6777 21.9581H39.1497L42.6697 16.3261L39.1017 10.7901H41.6777L44.0938 14.5341L46.2698 10.7901H48.7978L45.2937 16.4061L48.8617 21.9581H46.2857ZM50.1905 17.4941C50.1905 16.5981 50.3665 15.8035 50.7185 15.1101C51.0812 14.4168 51.5718 13.8835 52.1905 13.5101C52.8092 13.1368 53.4972 12.9501 54.2545 12.9501C54.8305 12.9501 55.3798 13.0781 55.9025 13.3341C56.4252 13.5795 56.8412 13.9101 57.1505 14.3261V10.1181H59.4225V21.9581H57.1505V20.6461C56.8732 21.0835 56.4838 21.4355 55.9825 21.7021C55.4812 21.9688 54.8998 22.1021 54.2385 22.1021C53.4918 22.1021 52.8092 21.9101 52.1905 21.5261C51.5718 21.1421 51.0812 20.6035 50.7185 19.9101C50.3665 19.2061 50.1905 18.4008 50.1905 17.4941ZM57.1665 17.5261C57.1665 16.9821 57.0598 16.5181 56.8465 16.1341C56.6332 15.7395 56.3452 15.4408 55.9825 15.2381C55.6198 15.0248 55.2305 14.9181 54.8145 14.9181C54.3985 14.9181 54.0145 15.0195 53.6625 15.2221C53.3105 15.4248 53.0225 15.7235 52.7985 16.1181C52.5852 16.5021 52.4785 16.9608 52.4785 17.4941C52.4785 18.0275 52.5852 18.4968 52.7985 18.9021C53.0225 19.2968 53.3105 19.6008 53.6625 19.8141C54.0252 20.0275 54.4092 20.1341 54.8145 20.1341C55.2305 20.1341 55.6198 20.0328 55.9825 19.8301C56.3452 19.6168 56.6332 19.3181 56.8465 18.9341C57.0598 18.5395 57.1665 18.0701 57.1665 17.5261Z" fill="#FF61F6"/>
</svg>
